<svg width="80" height="80" viewBox="0 0 80 80" fill="none" xmlns="http://www.w3.org/2000/svg">
<path d="M80 30.0556V60.1389L70.0833 70.0556L60.1389 80H30.0833H0V40V1.27157e-06H40H80V30.0556Z" fill="#4338CA"/>
<path d="M13.5277 28.2222C13.4166 28.3333 13.3333 28.5833 13.3333 28.8055C13.3333 29.0833 13.9722 29.1666 16.1111 29.1666C17.6388 29.1666 18.8888 29.2777 18.8888 29.4166C18.8888 29.8333 10.6666 68.5833 10.3888 69.5C10.2499 69.9444 9.88883 70 7.63883 70C5.0555 70 4.72217 70.1389 4.72217 71.1389C4.72217 71.2777 8.38883 71.3889 13.5833 71.3889H22.4444L22.5555 70.6944L22.6944 70H19.9166H17.1388L17.3055 69.0833C17.3888 68.6111 18.2777 64.4444 19.2499 59.8611C20.2499 55.2777 21.1944 50.7777 21.3888 49.8889L21.7222 48.25L24.3611 48.4166C30.0555 48.8055 31.3888 50.5555 31.8055 58.1944C32.1388 64.3889 32.6944 66.8889 34.1944 69.0833C35.7777 71.3889 39.8055 72.4722 43.6944 71.6666C44.9722 71.4166 45.2777 71.25 45.2777 70.8055C45.2777 70.2777 45.1666 70.25 43.8333 70.4166C42.5555 70.5833 42.2222 70.5 41.3888 69.9444C40.8611 69.5833 40.2499 68.9444 40.0555 68.5555C39.8611 68.1111 39.6111 65.6944 39.4722 62.4444C39.2777 58.0555 39.1111 56.8055 38.6388 55.5C37.5277 52.6111 35.4166 50.6111 31.7777 49.0277C29.4722 48.0277 29.4999 47.9166 32.0833 47.6666C37.3333 47.1666 41.7222 44.8333 43.6388 41.4722C44.4722 40.0277 44.5833 39.6111 44.6666 37.2222C44.7499 34.6944 44.7222 34.5 43.8333 32.7777C42.7777 30.6944 41.3055 29.4444 39.0833 28.6944C37.8055 28.2777 36.1388 28.1944 25.6944 28.1111C19.1111 28.0833 13.6388 28.1111 13.5277 28.2222ZM33.8888 29.4722C35.6388 29.8333 37.1111 31.0555 37.4999 32.4444C38.1666 34.8889 37.4166 39.6389 35.8611 42.6944C34.2499 45.9166 32.7499 46.6111 26.7499 47.0277C24.1388 47.1944 22.3888 47.2222 22.2499 47.0555C22.1388 46.9166 22.7499 43.5 23.6388 39.4444C24.5277 35.3889 25.3888 31.4166 25.5555 30.6111L25.8611 29.1666H29.1666C30.9999 29.1666 33.1111 29.3055 33.8888 29.4722Z" fill="white"/>
<path d="M49.1667 48.889V50.5557H57.8612C62.6112 50.5557 68.3056 50.4723 70.5001 50.3612L74.4445 50.1946V48.6946V47.2223H61.8056H49.1667V48.889Z" fill="white"/>
<path d="M49.1667 58.4722V60H61.8056H74.4445V58.4722V56.9444H61.8056H49.1667V58.4722Z" fill="white"/>
</svg>
