<svg width="230" height="33" viewBox="0 0 230 33" fill="none" xmlns="http://www.w3.org/2000/svg">
<path d="M7.74758 1.64506C9.86283 1.64506 11.6074 1.90674 12.9812 2.4301C14.355 2.93165 15.3799 3.70579 16.0559 4.75251C16.7319 5.77742 17.0699 7.07492 17.0699 8.645C17.0699 9.71353 16.8628 10.6512 16.4484 11.4581C16.0559 12.2431 15.5217 12.9191 14.8457 13.4861C14.1915 14.0312 13.4827 14.4783 12.7195 14.8272L19.5886 25H14.0933L8.53262 16.0375H5.88311V25H0.9439V1.64506H7.74758ZM7.38777 5.7011H5.88311V12.0141H7.4859C8.57623 12.0141 9.4594 11.8942 10.1354 11.6543C10.8114 11.4144 11.3021 11.0546 11.6074 10.5749C11.9127 10.0733 12.0653 9.47365 12.0653 8.77584C12.0653 8.03441 11.8908 7.44563 11.5419 7.0095C11.2148 6.55156 10.7024 6.22446 10.0046 6.0282C9.32856 5.81013 8.4563 5.7011 7.38777 5.7011ZM28.1964 6.81324C29.8537 6.81324 31.2712 7.12944 32.4487 7.76183C33.6481 8.39422 34.5749 9.3101 35.2291 10.5095C35.8833 11.7088 36.2104 13.1808 36.2104 14.9253V17.2804H24.6965C24.7401 18.6543 25.1435 19.7337 25.9067 20.5187C26.6918 21.3038 27.7712 21.6963 29.145 21.6963C30.3008 21.6963 31.3475 21.5873 32.2852 21.3692C33.2229 21.1293 34.1933 20.7695 35.1964 20.2898V24.0514C34.3241 24.4875 33.3973 24.8037 32.416 25C31.4565 25.2181 30.2899 25.3271 28.9161 25.3271C27.1279 25.3271 25.5469 25 24.1731 24.3458C22.7993 23.6698 21.7199 22.6558 20.9348 21.3038C20.1498 19.9518 19.7573 18.2508 19.7573 16.201C19.7573 14.1076 20.1062 12.3739 20.804 11.0001C21.5236 9.60449 22.5158 8.55777 23.7806 7.85996C25.0454 7.16215 26.5173 6.81324 28.1964 6.81324ZM28.2292 10.2805C27.2915 10.2805 26.5064 10.5858 25.874 11.1964C25.2634 11.807 24.9036 12.7556 24.7946 14.0422H31.631C31.631 13.3225 31.5002 12.6792 31.2385 12.1123C30.9986 11.5453 30.6279 11.0982 30.1263 10.7711C29.6248 10.444 28.9924 10.2805 28.2292 10.2805ZM51.3165 19.701C51.3165 20.9003 51.033 21.9253 50.4661 22.7757C49.8991 23.6044 49.0486 24.2368 47.9147 24.6729C46.7807 25.109 45.3742 25.3271 43.6951 25.3271C42.4521 25.3271 41.3836 25.2399 40.4895 25.0654C39.5954 24.9128 38.7014 24.6511 37.8073 24.2804V20.257C38.7668 20.6932 39.8026 21.053 40.9148 21.3365C42.0269 21.62 43.0082 21.7617 43.8587 21.7617C44.8181 21.7617 45.4942 21.62 45.8867 21.3365C46.301 21.053 46.5082 20.6823 46.5082 20.2243C46.5082 19.919 46.4209 19.6465 46.2465 19.4066C46.0938 19.1667 45.7449 18.8941 45.1998 18.5888C44.6546 18.2835 43.8041 17.891 42.6484 17.4113C41.5362 16.9315 40.6204 16.4627 39.9007 16.0048C39.1811 15.525 38.6469 14.958 38.298 14.3038C37.949 13.6278 37.7746 12.7883 37.7746 11.7852C37.7746 10.1279 38.4179 8.88487 39.7045 8.05622C40.9911 7.22757 42.7029 6.81324 44.84 6.81324C45.9521 6.81324 47.0097 6.92227 48.0128 7.14034C49.0159 7.35841 50.0517 7.71822 51.1203 8.21977L49.6483 11.7197C49.0595 11.4581 48.4926 11.2291 47.9474 11.0328C47.4022 10.8366 46.868 10.6839 46.3446 10.5749C45.8431 10.4659 45.3197 10.4113 44.7745 10.4113C44.0549 10.4113 43.5097 10.5095 43.139 10.7057C42.7901 10.902 42.6157 11.1964 42.6157 11.5889C42.6157 11.8724 42.7029 12.1341 42.8774 12.3739C43.0736 12.592 43.4334 12.8319 43.9568 13.0936C44.5019 13.3552 45.2979 13.7041 46.3446 14.1403C47.3695 14.5546 48.2527 14.9907 48.9941 15.4487C49.7355 15.8848 50.3025 16.4409 50.695 17.1169C51.1094 17.7711 51.3165 18.6325 51.3165 19.701ZM61.1645 6.81324C62.8218 6.81324 64.2393 7.12944 65.4168 7.76183C66.6162 8.39422 67.543 9.3101 68.1972 10.5095C68.8514 11.7088 69.1785 13.1808 69.1785 14.9253V17.2804H57.6646C57.7082 18.6543 58.1116 19.7337 58.8748 20.5187C59.6599 21.3038 60.7393 21.6963 62.1131 21.6963C63.2689 21.6963 64.3156 21.5873 65.2533 21.3692C66.191 21.1293 67.1614 20.7695 68.1645 20.2898V24.0514C67.2922 24.4875 66.3654 24.8037 65.3841 25C64.4246 25.2181 63.258 25.3271 61.8842 25.3271C60.096 25.3271 58.515 25 57.1412 24.3458C55.7674 23.6698 54.688 22.6558 53.9029 21.3038C53.1179 19.9518 52.7254 18.2508 52.7254 16.201C52.7254 14.1076 53.0743 12.3739 53.7721 11.0001C54.4917 9.60449 55.4839 8.55777 56.7487 7.85996C58.0135 7.16215 59.4854 6.81324 61.1645 6.81324ZM61.1973 10.2805C60.2596 10.2805 59.4745 10.5858 58.8421 11.1964C58.2315 11.807 57.8717 12.7556 57.7627 14.0422H64.5991C64.5991 13.3225 64.4683 12.6792 64.2066 12.1123C63.9667 11.5453 63.596 11.0982 63.0944 10.7711C62.5929 10.444 61.9605 10.2805 61.1973 10.2805ZM79.1492 6.78053C81.5479 6.78053 83.3797 7.30389 84.6444 8.35061C85.931 9.37552 86.5743 10.9565 86.5743 13.0936V25H83.1725L82.2239 22.5795H82.0931C81.5915 23.2119 81.0682 23.7352 80.523 24.1495C79.9996 24.5639 79.389 24.8583 78.6912 25.0327C78.0152 25.229 77.1757 25.3271 76.1726 25.3271C75.1258 25.3271 74.1772 25.1308 73.3268 24.7383C72.4981 24.324 71.8439 23.7025 71.3642 22.8738C70.8844 22.0234 70.6446 20.9549 70.6446 19.6683C70.6446 17.7711 71.3097 16.3755 72.6399 15.4814C73.9701 14.5655 75.9654 14.064 78.6258 13.9767L81.7333 13.8786V13.0936C81.7333 12.1559 81.4825 11.469 80.9809 11.0328C80.5012 10.5967 79.8252 10.3786 78.9529 10.3786C78.0806 10.3786 77.2302 10.5095 76.4015 10.7711C75.5729 11.011 74.7442 11.3163 73.9156 11.687L72.3128 8.38332C73.2723 7.88177 74.3299 7.48925 75.4856 7.20576C76.6632 6.92227 77.8844 6.78053 79.1492 6.78053ZM79.8361 16.7898C78.266 16.8334 77.1757 17.1169 76.5651 17.6402C75.9545 18.1636 75.6492 18.8505 75.6492 19.701C75.6492 20.4424 75.8673 20.9767 76.3034 21.3038C76.7395 21.6091 77.3065 21.7617 78.0043 21.7617C79.051 21.7617 79.9342 21.4564 80.6538 20.8458C81.3734 20.2134 81.7333 19.3303 81.7333 18.1963V16.7244L79.8361 16.7898ZM100.231 6.81324C100.471 6.81324 100.755 6.82414 101.082 6.84595C101.409 6.86776 101.671 6.90047 101.867 6.94408L101.507 11.5235C101.354 11.4799 101.125 11.4472 100.82 11.4253C100.537 11.3817 100.286 11.3599 100.068 11.3599C99.4353 11.3599 98.8247 11.4472 98.236 11.6216C97.6472 11.7743 97.1129 12.025 96.6332 12.3739C96.1752 12.7228 95.8045 13.1917 95.521 13.7805C95.2593 14.3474 95.1285 15.0562 95.1285 15.9066V25H90.2547V7.14034H93.9509L94.6706 10.1497H94.8995C95.2484 9.53907 95.6846 8.983 96.2079 8.48145C96.7313 7.9799 97.331 7.57647 98.007 7.27118C98.7048 6.96589 99.4462 6.81324 100.231 6.81324ZM110.423 25.3271C108.656 25.3271 107.152 25.0109 105.909 24.3785C104.666 23.7243 103.717 22.7212 103.063 21.3692C102.409 20.0172 102.082 18.2835 102.082 16.1683C102.082 13.9876 102.452 12.2104 103.194 10.8366C103.935 9.46275 104.96 8.44874 106.269 7.79454C107.599 7.14034 109.125 6.81324 110.848 6.81324C112.069 6.81324 113.127 6.93318 114.021 7.17305C114.937 7.41292 115.733 7.69641 116.409 8.02351L114.969 11.7852C114.206 11.4799 113.487 11.2291 112.811 11.0328C112.156 10.8366 111.502 10.7384 110.848 10.7384C109.998 10.7384 109.289 10.9456 108.722 11.3599C108.155 11.7524 107.73 12.3521 107.446 13.159C107.184 13.944 107.054 14.9362 107.054 16.1356C107.054 17.3131 107.195 18.2944 107.479 19.0795C107.784 19.8427 108.22 20.4206 108.787 20.8131C109.354 21.1838 110.041 21.3692 110.848 21.3692C111.873 21.3692 112.778 21.2383 113.563 20.9767C114.348 20.6932 115.111 20.3116 115.853 19.8318V23.986C115.111 24.4657 114.326 24.8037 113.497 25C112.691 25.2181 111.666 25.3271 110.423 25.3271ZM123.529 5.21045C123.529 6.08272 123.496 6.92227 123.431 7.72912C123.387 8.53597 123.343 9.10294 123.3 9.43004H123.561C123.954 8.81945 124.412 8.3288 124.935 7.95809C125.459 7.56557 126.036 7.28208 126.669 7.10763C127.323 6.91137 128.01 6.81324 128.73 6.81324C130.016 6.81324 131.139 7.04221 132.099 7.50015C133.058 7.95809 133.8 8.66681 134.323 9.6263C134.868 10.5858 135.141 11.8288 135.141 13.3552V25H130.267V14.5655C130.267 13.2789 130.027 12.3194 129.547 11.687C129.089 11.0328 128.37 10.7057 127.388 10.7057C126.407 10.7057 125.633 10.9347 125.066 11.3926C124.521 11.8506 124.128 12.5157 123.889 13.3879C123.649 14.2602 123.529 15.3287 123.529 16.5935V25H118.655V0.140399H123.529V5.21045ZM152.517 25H139.466V1.64506H152.517V4.22915H142.41V11.5235H151.928V14.0749H142.41V22.4159H152.517V25ZM167.618 25.3598C167.618 24.9673 167.629 24.5093 167.651 23.986C167.673 23.4626 167.716 23.0156 167.782 22.6449H167.585C167.084 23.3863 166.386 24.0187 165.492 24.5421C164.62 25.0654 163.486 25.3271 162.09 25.3271C159.975 25.3271 158.252 24.5748 156.922 23.0701C155.614 21.5436 154.959 19.2757 154.959 16.2664C154.959 14.2602 155.265 12.5811 155.875 11.2291C156.486 9.87708 157.336 8.86307 158.427 8.18706C159.517 7.48925 160.771 7.14034 162.188 7.14034C163.562 7.14034 164.685 7.40202 165.557 7.92538C166.43 8.44874 167.128 9.09204 167.651 9.85527H167.782L168.207 7.46744H170.497V32.8504H167.618V25.3598ZM162.646 22.9393C163.846 22.9393 164.805 22.7212 165.525 22.2851C166.266 21.8489 166.8 21.1838 167.128 20.2898C167.455 19.3739 167.629 18.2399 167.651 16.8879V16.2991C167.651 14.0749 167.28 12.3957 166.539 11.2618C165.797 10.106 164.478 9.52817 162.581 9.52817C161.011 9.52817 159.844 10.1497 159.081 11.3926C158.318 12.6138 157.936 14.2602 157.936 16.3318C157.936 18.4035 158.318 20.0281 159.081 21.2056C159.866 22.3614 161.054 22.9393 162.646 22.9393ZM189.411 7.46744V25H187.056L186.63 22.6776H186.5C186.129 23.2882 185.649 23.7897 185.06 24.1823C184.472 24.5748 183.828 24.8583 183.13 25.0327C182.433 25.229 181.702 25.3271 180.939 25.3271C179.543 25.3271 178.366 25.109 177.406 24.6729C176.468 24.215 175.76 23.5171 175.28 22.5795C174.8 21.6418 174.56 20.4315 174.56 18.9487V7.46744H177.472V18.7524C177.472 20.148 177.788 21.1947 178.42 21.8925C179.053 22.5904 180.034 22.9393 181.364 22.9393C182.672 22.9393 183.697 22.6994 184.439 22.2197C185.202 21.7181 185.736 20.9985 186.042 20.0608C186.369 19.1013 186.532 17.9455 186.532 16.5935V7.46744H189.411ZM200.309 7.17305C202.446 7.17305 204.027 7.64189 205.051 8.57958C206.076 9.51727 206.589 11.011 206.589 13.0609V25H204.495L203.939 22.514H203.808C203.307 23.1464 202.784 23.6807 202.238 24.1168C201.715 24.5312 201.104 24.8364 200.407 25.0327C199.731 25.229 198.902 25.3271 197.921 25.3271C196.874 25.3271 195.925 25.1417 195.075 24.771C194.246 24.4003 193.592 23.8333 193.112 23.0701C192.633 22.2851 192.393 21.3038 192.393 20.1262C192.393 18.3817 193.08 17.0406 194.453 16.1029C195.827 15.1434 197.943 14.62 200.799 14.5328L203.776 14.4347V13.3879C203.776 11.9269 203.46 10.9129 202.827 10.3459C202.195 9.77895 201.301 9.49546 200.145 9.49546C199.229 9.49546 198.357 9.6372 197.528 9.92069C196.7 10.1824 195.925 10.4877 195.206 10.8366L194.323 8.67771C195.086 8.26338 195.991 7.91448 197.038 7.63099C198.084 7.3257 199.175 7.17305 200.309 7.17305ZM201.159 16.5281C198.978 16.6153 197.463 16.9642 196.612 17.5748C195.784 18.1854 195.369 19.0468 195.369 20.1589C195.369 21.1402 195.664 21.8598 196.252 22.3178C196.863 22.7757 197.637 23.0047 198.575 23.0047C200.058 23.0047 201.29 22.6013 202.271 21.7944C203.252 20.9658 203.743 19.701 203.743 18.0001V16.43L201.159 16.5281ZM213.574 25H210.695V0.140399H213.574V25ZM229.236 20.1589C229.236 21.2929 228.952 22.2415 228.385 23.0047C227.818 23.7679 227.012 24.3458 225.965 24.7383C224.918 25.1308 223.675 25.3271 222.236 25.3271C221.015 25.3271 219.957 25.229 219.063 25.0327C218.191 24.8364 217.417 24.5639 216.741 24.215V21.5982C217.439 21.9471 218.278 22.2742 219.259 22.5795C220.262 22.8629 221.276 23.0047 222.301 23.0047C223.762 23.0047 224.82 22.7757 225.474 22.3178C226.128 21.838 226.456 21.2056 226.456 20.4206C226.456 19.9845 226.336 19.5919 226.096 19.243C225.856 18.8941 225.42 18.5452 224.787 18.1963C224.177 17.8474 223.294 17.4549 222.138 17.0188C221.004 16.5826 220.034 16.1465 219.227 15.7104C218.42 15.2742 217.798 14.7509 217.362 14.1403C216.926 13.5297 216.708 12.7447 216.708 11.7852C216.708 10.3023 217.308 9.15746 218.507 8.35061C219.728 7.54376 221.32 7.14034 223.283 7.14034C224.351 7.14034 225.343 7.24937 226.259 7.46744C227.197 7.6637 228.069 7.94719 228.876 8.3179L227.895 10.6076C227.415 10.3895 226.903 10.2042 226.357 10.0515C225.834 9.87708 225.3 9.74624 224.755 9.65901C224.209 9.54998 223.653 9.49546 223.086 9.49546C221.909 9.49546 221.004 9.69172 220.372 10.0842C219.761 10.455 219.456 10.9674 219.456 11.6216C219.456 12.1014 219.597 12.5157 219.881 12.8646C220.164 13.1917 220.633 13.5188 221.287 13.8459C221.963 14.1512 222.857 14.5219 223.97 14.958C225.082 15.3724 226.03 15.7976 226.815 16.2337C227.6 16.6699 228.2 17.2041 228.614 17.8365C229.029 18.4471 229.236 19.2212 229.236 20.1589Z" fill="#F7F7FB"/>
</svg>
