<svg width="496" height="390" viewBox="0 0 496 390" fill="none" xmlns="http://www.w3.org/2000/svg">
<g clip-path="url(#clip0_262_4563)">
<path d="M66.773 23.7992L70.202 47.6203L63.4799 56.603L56.7389 65.6109L32.9398 69.0367L9.11865 72.4656L4.55942 40.792L0.000180063 9.11849L31.6737 4.55925L63.3473 1.47727e-05L66.773 23.7992Z" fill="#4F46E5"/>
<path d="M20.4407 33.0357C20.4298 32.9598 20.4446 32.8947 20.4852 32.8404C20.5354 32.7847 20.6031 32.7508 20.6886 32.7385L28.8611 31.5621C29.0509 31.5347 29.1582 31.6065 29.1828 31.7774L29.3734 33.1015C29.3938 33.2439 29.3187 33.3274 29.1478 33.3519L26.4853 33.7352C26.3809 33.7502 26.3355 33.8052 26.3492 33.9001L27.5522 42.2577C27.5782 42.4381 27.5105 42.5399 27.3491 42.5631L25.3131 42.8562C25.1707 42.8767 25.0879 42.8062 25.0647 42.6449L23.8637 34.3015C23.8542 34.235 23.8331 34.1896 23.8005 34.1653C23.7774 34.1395 23.7374 34.1307 23.6805 34.1389L20.9326 34.5345C20.7522 34.5604 20.6518 34.5022 20.6313 34.3599L20.4407 33.0357ZM31.7595 38.731C31.836 39.2626 32.0738 39.6692 32.4728 39.9508C32.8799 40.2216 33.3493 40.3188 33.8808 40.2423C34.2225 40.1931 34.5255 40.0768 34.7898 39.8934C35.0622 39.6992 35.3209 39.4101 35.566 39.026C35.5985 38.9826 35.6337 38.9581 35.6717 38.9527C35.7001 38.9486 35.7497 38.956 35.8202 38.9749L36.9068 39.2545C36.9774 39.2734 37.0174 39.316 37.027 39.3825C37.0338 39.43 37.0216 39.4801 36.9905 39.5331C36.6278 40.2441 36.2046 40.7701 35.7208 41.111C35.2356 41.4424 34.6038 41.6642 33.8255 41.7762C33.0946 41.8814 32.4117 41.815 31.7768 41.577C31.1418 41.339 30.6172 40.9591 30.203 40.4374C29.7875 39.9062 29.5264 39.2705 29.4198 38.5301C29.3051 37.7328 29.3748 37.0058 29.6291 36.3491C29.882 35.6829 30.274 35.1421 30.8052 34.7265C31.3459 34.3096 31.9627 34.0513 32.6556 33.9515C33.377 33.8477 34.0409 33.9168 34.6474 34.1589C35.2525 34.3916 35.7547 34.7843 36.154 35.3372C36.5533 35.8901 36.8124 36.5795 36.9313 37.4053C36.949 37.5287 36.9471 37.6161 36.9255 37.6677C36.9133 37.7179 36.851 37.7559 36.7384 37.7818L31.8976 38.4786C31.7836 38.495 31.7376 38.5792 31.7595 38.731ZM34.4164 36.8953C34.5208 36.8803 34.5858 36.8612 34.6116 36.8381C34.636 36.8056 34.642 36.7466 34.6297 36.6611C34.5942 36.4143 34.5017 36.1757 34.3523 35.9454C34.2029 35.715 34.0074 35.5348 33.7658 35.4049C33.5243 35.2749 33.2469 35.2325 32.9337 35.2776C32.4591 35.3459 32.0938 35.568 31.8379 35.944C31.582 36.3199 31.4963 36.7682 31.581 37.2889L34.4164 36.8953ZM45.3205 39.4821C45.4563 39.6176 45.5296 39.7233 45.5405 39.7992C45.5542 39.8941 45.4709 39.9546 45.2905 39.9805L43.4681 40.2429C43.2403 40.2757 43.068 40.223 42.9512 40.0847L41.1875 38.2314C41.0938 38.1189 41.028 38.0654 40.99 38.0709C40.9521 38.0763 40.9033 38.1415 40.8438 38.2663L39.648 40.5602C39.575 40.7258 39.4293 40.8242 39.211 40.8557L38.0434 41.0237C37.8156 41.0565 37.6922 41.0065 37.673 40.8736C37.658 40.7692 37.6972 40.6376 37.7906 40.4788L39.6932 37.1385C39.7378 37.0449 39.7568 36.9743 39.7499 36.9269C39.7404 36.8604 39.6955 36.7845 39.6154 36.6992L36.858 33.8989C36.8132 33.8569 36.786 33.8026 36.7765 33.7362C36.7683 33.6792 36.7845 33.6236 36.8251 33.5693C36.8657 33.515 36.9288 33.4817 37.0142 33.4695L38.7512 33.2194C38.8746 33.2017 38.9675 33.2077 39.0299 33.2374C39.1005 33.2563 39.1704 33.3044 39.2396 33.3816L40.8322 35.0562C40.8906 35.1253 40.9388 35.1571 40.9767 35.1517C41.0052 35.1476 41.0377 35.1041 41.0743 35.0214L42.0587 32.9758C42.1034 32.8822 42.1521 32.8171 42.205 32.7804C42.2659 32.7329 42.3629 32.6995 42.4958 32.6804L43.7772 32.496C43.9385 32.4727 44.026 32.5086 44.0397 32.6035C44.0465 32.651 44.0269 32.7167 43.9809 32.8009L42.2735 35.9823C42.2261 36.0569 42.2072 36.1275 42.2167 36.1939C42.2236 36.2414 42.2677 36.3125 42.3492 36.4074L45.3205 39.4821ZM48.3895 33.3725C48.2851 33.3876 48.241 33.452 48.2574 33.5659L48.7514 36.9973C48.7978 37.32 48.9072 37.5416 49.0796 37.6621C49.2506 37.7731 49.5022 37.8047 49.8344 37.7569L50.6033 37.6463C50.6697 37.6367 50.7253 37.6529 50.7701 37.6949C50.8136 37.7274 50.8407 37.7816 50.8517 37.8576L50.9624 38.7281C50.9898 38.918 50.9018 39.0469 50.6984 39.1149C50.3079 39.2292 49.7473 39.339 49.0164 39.4442C48.352 39.5399 47.8121 39.4577 47.3968 39.1978C46.9816 38.9378 46.7309 38.5088 46.6448 37.9109L46.071 33.9243C46.0505 33.7819 45.9785 33.7196 45.8551 33.7373L44.9866 33.8623C44.8063 33.8883 44.7045 33.8206 44.6813 33.6592L44.5296 32.6056C44.5091 32.4633 44.5843 32.3798 44.7551 32.3552L45.7375 32.2138C45.8135 32.2028 45.8534 32.1438 45.8574 32.0367L45.7452 29.8438C45.7409 29.6797 45.8005 29.5888 45.9239 29.571L47.4758 29.3476C47.5423 29.3381 47.5979 29.3543 47.6427 29.3963C47.697 29.4369 47.7303 29.4999 47.7426 29.5854L48.05 31.721C48.0637 31.816 48.118 31.8566 48.2129 31.8429L49.7079 31.6277C49.8787 31.6031 49.9751 31.6668 49.9969 31.8186L50.1486 32.8723C50.1718 33.0336 50.0885 33.128 49.8987 33.1553L48.3895 33.3725Z" fill="white"/>
<path d="M237.794 228.21C238.184 228.6 238.817 228.6 239.208 228.21L245.572 221.846C245.962 221.455 245.962 220.822 245.572 220.432C245.181 220.041 244.548 220.041 244.158 220.432L238.501 226.088L232.844 220.432C232.454 220.041 231.82 220.041 231.43 220.432C231.039 220.822 231.039 221.455 231.43 221.846L237.794 228.21ZM49.0034 83.4342C48.9554 84.1269 48.9165 84.8202 48.8897 85.5131L50.8882 85.5905C50.9141 84.9206 50.9518 84.2477 50.9986 83.5725L49.0034 83.4342ZM49.3595 93.9018C49.6089 95.2992 49.9624 96.6774 50.4471 98.0247L52.329 97.3476C51.8866 96.1179 51.5603 94.85 51.3284 93.5505L49.3595 93.9018ZM54.858 105.333C55.7782 106.338 56.8254 107.299 58.0136 108.211L59.2317 106.625C58.1319 105.781 57.1712 104.898 56.3329 103.982L54.858 105.333ZM65.3215 112.4C66.5394 112.923 67.8412 113.418 69.232 113.881L69.8644 111.984C68.5231 111.537 67.2742 111.062 66.1116 110.562L65.3215 112.4ZM77.2783 116.001C78.5763 116.268 79.9311 116.514 81.345 116.741L81.6616 114.766C80.2746 114.544 78.9482 114.302 77.68 114.042L77.2783 116.001ZM89.5498 117.764C90.8785 117.887 92.2494 117.996 93.6635 118.091L93.797 116.095C92.3993 116.002 91.0457 115.894 89.7349 115.772L89.5498 117.764ZM101.893 118.46C102.581 118.477 103.279 118.491 103.985 118.503L104.016 116.503C103.316 116.492 102.625 116.478 101.942 116.461L101.893 118.46ZM152.5 73.502C152.5 73.0077 152.55 72.4258 152.654 71.7658L150.678 71.4536C150.562 72.1926 150.5 72.8812 150.5 73.502H152.5ZM154.925 64.6967C155.418 63.6089 155.987 62.4859 156.632 61.3488L154.892 60.3621C154.217 61.5518 153.621 62.7287 153.104 63.8715L154.925 64.6967ZM160.896 55.1524C161.683 54.2007 162.525 53.2674 163.423 52.3655L162.005 50.9545C161.062 51.9021 160.179 52.8813 159.355 53.8783L160.896 55.1524ZM169.206 47.6109C170.232 46.9327 171.306 46.3019 172.429 45.7283L171.519 43.9474C170.328 44.5561 169.189 45.2246 168.103 45.9422L169.206 47.6109ZM179.416 43.1296C180.598 42.8421 181.82 42.6163 183.084 42.4597L182.838 40.4749C181.498 40.641 180.199 40.8807 178.943 41.1863L179.416 43.1296ZM190.545 42.3503C191.753 42.4574 192.993 42.6249 194.264 42.8576L194.624 40.8903C193.293 40.6467 191.993 40.4708 190.722 40.3581L190.545 42.3503ZM201.537 44.8119C202.692 45.2173 203.87 45.674 205.069 46.185L205.853 44.3449C204.615 43.8175 203.397 43.3449 202.2 42.9248L201.537 44.8119ZM211.879 49.5506C212.948 50.1502 214.033 50.7909 215.134 51.4747L216.189 49.7758C215.064 49.0768 213.953 48.4207 212.857 47.8061L211.879 49.5506ZM221.472 55.7699C222.463 56.4966 223.466 57.2568 224.481 58.0515L225.714 56.4772C224.683 55.6696 223.663 54.8964 222.654 54.1568L221.472 55.7699ZM230.364 62.9422C230.851 63.3695 231.34 63.8045 231.832 64.2473L233.17 62.7614C232.673 62.3129 232.177 61.8723 231.684 61.4393L230.364 62.9422ZM321.668 74.0556C322.03 74.6018 322.423 75.1508 322.845 75.7008L324.432 74.4838C324.036 73.9678 323.67 73.4558 323.334 72.9497L321.668 74.0556ZM328.373 81.5154C329.346 82.3664 330.382 83.2053 331.477 84.0246L332.675 82.4231C331.619 81.6335 330.623 80.8266 329.69 80.0101L328.373 81.5154ZM338.176 88.3482C339.319 88.982 340.501 89.5903 341.72 90.1677L342.577 88.3603C341.396 87.8012 340.252 87.2125 339.147 86.5992L338.176 88.3482ZM349.124 93.1161C350.372 93.5234 351.647 93.8958 352.945 94.2292L353.443 92.292C352.186 91.9694 350.953 91.609 349.745 91.2148L349.124 93.1161ZM360.773 95.7006C362.08 95.8576 363.405 95.9725 364.746 96.042L364.849 94.0447C363.555 93.9776 362.275 93.8665 361.011 93.7148L360.773 95.7006ZM372.719 95.9052C374.03 95.7915 375.351 95.6314 376.68 95.422L376.369 93.4464C375.086 93.6484 373.811 93.8029 372.546 93.9126L372.719 95.9052ZM384.45 93.64C385.704 93.2602 386.962 92.8336 388.223 92.3577L387.517 90.4865C386.298 90.9467 385.082 91.359 383.871 91.7258L384.45 93.64ZM395.469 89.0756C396.62 88.4644 397.771 87.809 398.921 87.1077L397.88 85.4001C396.763 86.0809 395.647 86.7166 394.531 87.3091L395.469 89.0756ZM405.463 82.5988C406.496 81.8018 407.527 80.9647 408.554 80.0864L407.254 78.5663C406.252 79.4232 405.247 80.2392 404.241 81.0155L405.463 82.5988ZM414.319 74.6756C415.225 73.7464 416.128 72.7823 417.026 71.7824L415.538 70.4458C414.658 71.4257 413.774 72.3699 412.887 73.2792L414.319 74.6756ZM422.086 65.7042C422.492 65.1783 422.898 64.6443 423.302 64.1023L421.699 62.9063C421.302 63.4392 420.903 63.964 420.504 64.4808L422.086 65.7042ZM411.713 183.48C412.355 183.34 412.99 183.195 413.618 183.045L413.154 181.1C412.539 181.247 411.917 181.389 411.288 181.526L411.713 183.48ZM421.051 180.927C422.296 180.511 423.509 180.073 424.691 179.613L423.967 177.749C422.815 178.197 421.632 178.624 420.417 179.03L421.051 180.927ZM431.761 176.439C432.931 175.837 434.064 175.212 435.161 174.567L434.147 172.843C433.082 173.469 431.982 174.076 430.846 174.661L431.761 176.439ZM441.608 170.241C442.653 169.443 443.657 168.625 444.62 167.789L443.31 166.279C442.378 167.087 441.406 167.879 440.395 168.651L441.608 170.241ZM450.15 162.328C451.023 161.345 451.852 160.346 452.637 159.335L451.058 158.108C450.299 159.085 449.499 160.049 448.655 161L450.15 162.328ZM456.99 152.895C457.653 151.759 458.269 150.616 458.84 149.471L457.05 148.578C456.498 149.685 455.903 150.789 455.262 151.887L456.99 152.895ZM461.849 142.302C462.279 141.058 462.661 139.82 462.996 138.593L461.067 138.065C460.743 139.25 460.374 140.447 459.959 141.65L461.849 142.302ZM464.55 130.966C464.727 129.644 464.852 128.35 464.928 127.094L462.932 126.972C462.858 128.18 462.738 129.425 462.567 130.701L464.55 130.966ZM464.762 119.278C464.686 118.608 464.594 117.959 464.487 117.334L462.515 117.672C462.616 118.258 462.703 118.87 462.775 119.504L464.762 119.278ZM239.501 227.503C239.501 226.846 239.508 226.196 239.521 225.552L237.521 225.512C237.508 226.169 237.501 226.833 237.501 227.503L239.501 227.503ZM240.008 217.843C240.149 216.535 240.319 215.259 240.515 214.013L238.539 213.702C238.338 214.98 238.165 216.288 238.02 217.627L240.008 217.843ZM242.108 206.461C242.448 205.193 242.818 203.964 243.213 202.773L241.315 202.143C240.907 203.371 240.527 204.638 240.176 205.943L242.108 206.461ZM246.087 195.64C246.657 194.456 247.253 193.322 247.873 192.238L246.136 191.246C245.493 192.372 244.875 193.547 244.285 194.772L246.087 195.64ZM252.165 185.891C252.985 184.864 253.825 183.904 254.677 183.009L253.228 181.63C252.336 182.567 251.459 183.571 250.603 184.643L252.165 185.891ZM260.432 178.024C261.517 177.266 262.596 176.607 263.659 176.043L262.721 174.277C261.584 174.88 260.435 175.582 259.287 176.385L260.432 178.024ZM270.693 173.631C271.324 173.545 271.927 173.503 272.501 173.503V171.503C271.83 171.503 271.135 171.552 270.422 171.65L270.693 173.631ZM272.501 173.503C273.215 173.503 273.926 173.503 274.637 173.505L274.643 171.505C273.928 171.503 273.214 171.503 272.501 171.503V173.503ZM283.127 173.744C284.483 173.832 285.881 173.951 287.342 174.114L287.563 172.126C286.07 171.96 284.64 171.838 283.256 171.749L283.127 173.744ZM295.702 175.434C297.026 175.702 298.404 176.007 299.846 176.354L300.315 174.41C298.85 174.057 297.447 173.746 296.099 173.474L295.702 175.434ZM308.039 178.595C309.344 178.991 310.695 179.418 312.096 179.878L312.72 177.978C311.305 177.513 309.939 177.082 308.619 176.681L308.039 178.595ZM320.143 182.69C320.802 182.933 321.47 183.182 322.148 183.438L322.854 181.567C322.171 181.31 321.499 181.059 320.835 180.814L320.143 182.69ZM464.461 227.784C464.625 227.222 464.813 226.63 465.022 226.011L463.126 225.372C462.911 226.013 462.715 226.63 462.541 227.221L464.461 227.784ZM467.767 218.91C468.242 217.778 468.748 216.601 469.278 215.382L467.444 214.584C466.911 215.808 466.402 216.994 465.923 218.136L467.767 218.91ZM472.387 208.345C472.898 207.196 473.42 206.022 473.949 204.826L472.12 204.017C471.592 205.211 471.071 206.383 470.56 207.532L472.387 208.345ZM477.031 197.761C477.533 196.591 478.035 195.405 478.535 194.207L476.689 193.437C476.192 194.629 475.692 195.808 475.193 196.973L477.031 197.761ZM481.426 187.043C481.89 185.847 482.348 184.642 482.797 183.43L480.922 182.735C480.477 183.937 480.022 185.132 479.561 186.319L481.426 187.043ZM485.351 176.133C485.754 174.905 486.143 173.674 486.516 172.44L484.602 171.861C484.233 173.079 483.849 174.296 483.451 175.51L485.351 176.133ZM488.562 164.964C488.869 163.701 489.155 162.439 489.416 161.179L487.458 160.773C487.201 162.009 486.921 163.249 486.619 164.492L488.562 164.964ZM490.7 153.519C490.861 152.218 490.991 150.924 491.087 149.638L489.092 149.49C489 150.741 488.873 152.003 488.715 153.272L490.7 153.519ZM491.212 141.825C491.149 140.508 491.041 139.205 490.883 137.918L488.898 138.161C489.049 139.396 489.153 140.65 489.214 141.92L491.212 141.825ZM489.265 130.226C488.876 128.967 488.426 127.73 487.911 126.52L486.07 127.303C486.558 128.448 486.984 129.62 487.354 130.816L489.265 130.226ZM484.041 119.638C483.281 118.583 482.453 117.558 481.556 116.566L480.073 117.907C480.921 118.844 481.701 119.812 482.418 120.807L484.041 119.638ZM475.695 111.312C475.164 110.923 474.616 110.542 474.053 110.169L472.949 111.836C473.486 112.193 474.008 112.556 474.515 112.926L475.695 111.312Z" fill="#4F46E5"/>
<path d="M397.305 177.445L393.667 201.235L384.625 207.878L375.559 214.54L351.791 210.905L328 207.266L332.838 175.634L337.676 144.002L369.308 148.84L400.94 153.677L397.305 177.445Z" fill="#1D4ED8"/>
<path d="M346.301 171.954C346.453 171.977 346.516 172.074 346.49 172.245L344.968 182.198C344.949 182.321 344.907 182.407 344.841 182.455C344.777 182.494 344.674 182.502 344.531 182.481L342.74 182.207C342.626 182.189 342.549 182.153 342.509 182.099C342.469 182.044 342.457 181.964 342.473 181.86L343.999 171.878C344.027 171.698 344.116 171.62 344.268 171.643L346.301 171.954ZM346.998 182.858C346.893 182.842 346.82 182.811 346.779 182.766C346.739 182.711 346.726 182.632 346.742 182.528L347.81 175.546C347.823 175.461 347.852 175.397 347.897 175.356C347.952 175.315 348.013 175.3 348.079 175.311L349.785 175.572C349.927 175.593 349.986 175.685 349.962 175.846L349.855 176.543C349.843 176.619 349.861 176.66 349.909 176.667C349.937 176.672 349.973 176.658 350.017 176.626C350.472 176.317 350.904 176.092 351.313 175.951C351.723 175.81 352.141 175.772 352.568 175.837C353.07 175.914 353.479 176.098 353.793 176.388C354.108 176.679 354.305 177.039 354.385 177.468C354.388 177.508 354.404 177.529 354.433 177.534C354.471 177.54 354.517 177.522 354.572 177.482C354.982 177.147 355.423 176.895 355.895 176.724C356.377 176.555 356.836 176.504 357.272 176.571C357.936 176.673 358.431 176.957 358.757 177.424C359.093 177.892 359.206 178.482 359.098 179.193L358.326 184.241C358.291 184.468 358.16 184.565 357.932 184.53L356.354 184.289C356.25 184.273 356.181 184.243 356.149 184.199C356.119 184.146 356.111 184.067 356.127 183.963L356.862 179.157C356.91 178.844 356.862 178.584 356.719 178.378C356.576 178.172 356.348 178.045 356.035 177.997C355.779 177.958 355.517 177.991 355.249 178.095C354.99 178.201 354.761 178.341 354.559 178.514C354.492 178.571 354.44 178.626 354.403 178.679C354.376 178.733 354.355 178.802 354.342 178.888L353.633 183.523C353.598 183.751 353.467 183.847 353.24 183.812L351.676 183.573C351.581 183.559 351.513 183.529 351.471 183.484C351.44 183.43 351.433 183.352 351.449 183.247L352.184 178.441C352.232 178.129 352.184 177.869 352.041 177.663C351.898 177.457 351.665 177.329 351.343 177.28C351.068 177.238 350.801 177.269 350.543 177.375C350.284 177.481 349.999 177.666 349.687 177.928L348.939 182.82C348.921 182.934 348.88 183.015 348.814 183.063C348.75 183.101 348.652 183.111 348.519 183.09L346.998 182.858ZM364.029 184.72C363.315 185.203 362.526 185.378 361.664 185.246C360.953 185.137 360.418 184.862 360.058 184.419C359.701 183.966 359.569 183.432 359.663 182.816C359.785 182.019 360.248 181.435 361.052 181.064C361.856 180.692 362.9 180.589 364.184 180.757L364.702 180.792C364.759 180.801 364.809 180.794 364.851 180.771C364.904 180.741 364.936 180.692 364.946 180.626L364.991 180.327C365.048 179.958 364.987 179.657 364.809 179.426C364.631 179.195 364.348 179.05 363.959 178.991C363.295 178.889 362.759 179.098 362.35 179.618C362.297 179.707 362.228 179.745 362.143 179.732C362.096 179.724 362.054 179.713 362.017 179.698L360.645 179.153C360.563 179.121 360.528 179.063 360.541 178.977C360.55 178.92 360.58 178.852 360.631 178.773C360.942 178.258 361.408 177.907 362.029 177.72C362.658 177.535 363.405 177.509 364.267 177.641C365.395 177.813 366.179 178.147 366.617 178.641C367.057 179.125 367.219 179.746 367.103 180.505L366.34 185.496C366.323 185.609 366.291 185.687 366.246 185.729C366.201 185.77 366.126 185.783 366.022 185.767L364.558 185.543C364.463 185.529 364.397 185.485 364.359 185.411C364.332 185.339 364.319 185.235 364.32 185.099L364.353 184.784C364.357 184.698 364.326 184.649 364.259 184.639C364.221 184.633 364.144 184.66 364.029 184.72ZM364.715 182.133C364.728 182.048 364.724 181.984 364.701 181.942C364.678 181.899 364.624 181.872 364.539 181.859L364.136 181.826C363.582 181.771 363.074 181.829 362.611 182C362.159 182.164 361.902 182.45 361.84 182.858C361.796 183.142 361.861 183.385 362.034 183.586C362.208 183.777 362.471 183.9 362.822 183.954C363.258 184.02 363.647 183.949 363.989 183.739C364.34 183.541 364.535 183.313 364.574 183.057L364.715 182.133ZM376.602 179.338C376.792 179.367 376.87 179.486 376.839 179.694L376.691 180.661C376.65 180.927 376.524 181.019 376.314 180.938C376.176 180.888 376.04 180.853 375.908 180.833C375.832 180.821 375.745 180.817 375.647 180.822C375.395 180.822 375.284 180.917 375.313 181.105C375.359 181.374 375.369 181.594 375.343 181.765C375.277 182.201 375.084 182.574 374.765 182.884C374.455 183.196 374.024 183.416 373.47 183.545C372.926 183.675 372.29 183.684 371.56 183.573C371.029 183.492 370.629 183.474 370.36 183.52C370.1 183.568 369.96 183.663 369.938 183.805C369.919 183.928 369.972 184.028 370.096 184.106C370.231 184.175 370.458 184.243 370.777 184.312L372.793 184.736C373.723 184.937 374.388 185.252 374.788 185.682C375.197 186.113 375.356 186.627 375.265 187.224C375.152 187.964 374.711 188.503 373.941 188.841C373.171 189.179 372.142 189.25 370.853 189.053C368.094 188.631 366.808 187.808 366.995 186.585C367.042 186.282 367.199 186.044 367.468 185.872C367.739 185.69 368.104 185.552 368.565 185.458C368.625 185.447 368.657 185.428 368.661 185.4C368.665 185.371 368.641 185.338 368.589 185.301C368.08 184.952 367.858 184.559 367.925 184.123C367.964 183.867 368.124 183.649 368.403 183.468C368.694 183.28 369.06 183.137 369.502 183.04C369.625 183 369.643 182.945 369.557 182.874C368.702 182.306 368.341 181.591 368.473 180.729C368.583 180.008 368.979 179.482 369.66 179.15C370.351 178.819 371.275 178.742 372.432 178.919C373.408 179.068 374.134 179.397 374.609 179.906C374.668 179.964 374.726 179.997 374.783 180.006C374.859 180.017 374.93 179.994 374.997 179.937C375.211 179.746 375.477 179.593 375.795 179.477C376.115 179.351 376.384 179.305 376.602 179.338ZM371.711 182.49C372.194 182.564 372.571 182.51 372.841 182.328C373.123 182.138 373.291 181.863 373.346 181.503C373.407 181.105 373.331 180.773 373.12 180.508C372.919 180.235 372.577 180.061 372.093 179.987C371.638 179.918 371.26 179.981 370.958 180.178C370.666 180.375 370.49 180.669 370.431 181.057C370.376 181.418 370.459 181.731 370.68 181.998C370.912 182.256 371.256 182.42 371.711 182.49ZM370.104 185.955C369.813 185.891 369.537 185.922 369.275 186.046C369.024 186.163 368.881 186.34 368.845 186.577C368.791 186.928 368.945 187.223 369.306 187.463C369.667 187.702 370.284 187.889 371.156 188.022C371.791 188.119 372.293 188.104 372.662 187.976C373.029 187.857 373.237 187.637 373.287 187.315C373.32 187.097 373.252 186.907 373.083 186.745C372.913 186.583 372.645 186.465 372.279 186.389L370.104 185.955ZM378.869 184.53C378.787 185.061 378.897 185.519 379.197 185.905C379.508 186.282 379.929 186.512 380.459 186.593C380.801 186.645 381.124 186.622 381.431 186.523C381.748 186.416 382.079 186.215 382.425 185.918C382.469 185.886 382.51 185.873 382.548 185.879C382.576 185.883 382.621 185.905 382.683 185.943L383.642 186.527C383.704 186.565 383.73 186.618 383.72 186.684C383.712 186.731 383.686 186.776 383.641 186.817C383.087 187.392 382.53 187.773 381.968 187.958C381.407 188.135 380.738 188.163 379.961 188.044C379.231 187.933 378.597 187.671 378.058 187.259C377.52 186.847 377.128 186.331 376.884 185.711C376.64 185.082 376.575 184.398 376.688 183.659C376.81 182.862 377.088 182.187 377.522 181.632C377.957 181.068 378.49 180.665 379.119 180.421C379.757 180.18 380.422 180.112 381.114 180.217C381.835 180.328 382.45 180.587 382.96 180.994C383.471 181.393 383.838 181.914 384.059 182.559C384.281 183.205 384.329 183.939 384.202 184.764C384.184 184.887 384.156 184.971 384.121 185.014C384.094 185.058 384.024 185.076 383.909 185.068L379.074 184.329C378.96 184.312 378.892 184.379 378.869 184.53ZM381.944 183.546C382.048 183.562 382.116 183.562 382.148 183.548C382.18 183.524 382.203 183.469 382.216 183.384C382.254 183.137 382.235 182.882 382.159 182.618C382.083 182.354 381.948 182.125 381.755 181.931C381.561 181.736 381.308 181.615 380.995 181.567C380.521 181.495 380.107 181.601 379.753 181.886C379.399 182.172 379.187 182.576 379.117 183.099L381.944 183.546Z" fill="white"/>
<path d="M184 108.046V132.113L176.067 140.046L168.111 148.002H144.067H120V116.002V84.002H152H184V108.046Z" fill="#BE185D"/>
<path d="M138.881 110.185C139.61 110.185 140.281 110.324 140.895 110.602C141.508 110.88 142.012 111.259 142.405 111.738C142.808 112.218 143.062 112.755 143.167 113.349C143.186 113.416 143.196 113.493 143.196 113.579C143.196 113.637 143.182 113.675 143.153 113.695C143.124 113.714 143.081 113.728 143.023 113.738L141.082 113.867C140.995 113.867 140.938 113.853 140.909 113.824C140.89 113.795 140.871 113.738 140.851 113.651C140.746 113.124 140.535 112.707 140.218 112.4C139.902 112.093 139.48 111.94 138.953 111.94C137.418 111.94 136.651 113.167 136.651 115.622C136.651 116.898 136.843 117.828 137.226 118.413C137.61 118.998 138.195 119.29 138.981 119.29C139.557 119.29 140.041 119.146 140.434 118.859C140.837 118.571 141.163 118.101 141.412 117.449C141.441 117.382 141.503 117.348 141.599 117.348C141.657 117.348 141.7 117.353 141.729 117.363L143.139 117.665C143.273 117.713 143.326 117.833 143.297 118.024C143.201 118.437 142.976 118.883 142.621 119.362C142.275 119.842 141.786 120.259 141.153 120.614C140.521 120.968 139.763 121.146 138.881 121.146C137.893 121.146 137.03 120.916 136.291 120.455C135.563 119.985 135.002 119.333 134.608 118.499C134.215 117.655 134.019 116.682 134.019 115.579C134.019 114.486 134.215 113.532 134.608 112.716C135.002 111.901 135.563 111.278 136.291 110.846C137.03 110.405 137.893 110.185 138.881 110.185ZM148.11 121.146C147.352 121.146 146.681 120.983 146.096 120.657C145.521 120.321 145.07 119.856 144.744 119.261C144.418 118.667 144.255 117.991 144.255 117.233C144.255 116.447 144.418 115.752 144.744 115.147C145.08 114.543 145.54 114.073 146.125 113.738C146.719 113.402 147.386 113.234 148.124 113.234C148.882 113.234 149.553 113.407 150.138 113.752C150.723 114.088 151.174 114.558 151.49 115.162C151.816 115.766 151.979 116.452 151.979 117.219C151.979 117.976 151.816 118.652 151.49 119.247C151.164 119.842 150.709 120.307 150.124 120.642C149.539 120.978 148.868 121.146 148.11 121.146ZM148.124 119.679C148.652 119.679 149.05 119.472 149.318 119.06C149.596 118.638 149.735 118.015 149.735 117.19C149.735 116.356 149.596 115.728 149.318 115.306C149.05 114.874 148.652 114.658 148.124 114.658C147.597 114.658 147.194 114.874 146.916 115.306C146.638 115.728 146.499 116.356 146.499 117.19C146.499 118.005 146.638 118.624 146.916 119.046C147.194 119.468 147.597 119.679 148.124 119.679ZM158.505 121.002C158.303 121.002 158.203 120.906 158.203 120.714V120.311C158.203 120.235 158.179 120.196 158.131 120.196C158.102 120.196 158.059 120.216 158.001 120.254C157.723 120.522 157.416 120.738 157.081 120.901C156.755 121.064 156.361 121.146 155.901 121.146C155 121.146 154.271 120.81 153.715 120.139C153.168 119.468 152.895 118.504 152.895 117.248C152.895 116.461 153.034 115.766 153.312 115.162C153.6 114.548 153.983 114.073 154.463 113.738C154.942 113.402 155.47 113.234 156.045 113.234C156.419 113.234 156.755 113.297 157.052 113.421C157.359 113.546 157.651 113.738 157.929 113.997C157.997 114.045 158.044 114.069 158.073 114.069C158.14 114.069 158.174 114.006 158.174 113.882V110.587C158.174 110.415 158.251 110.329 158.404 110.329H160.159C160.226 110.329 160.279 110.353 160.317 110.4C160.365 110.448 160.389 110.516 160.389 110.602V120.7C160.389 120.805 160.365 120.882 160.317 120.93C160.269 120.978 160.183 121.002 160.058 121.002H158.505ZM158.174 115.363C157.953 115.123 157.733 114.946 157.512 114.831C157.301 114.716 157.062 114.658 156.793 114.658C156.285 114.658 155.882 114.869 155.585 115.291C155.287 115.704 155.139 116.346 155.139 117.219C155.139 118.101 155.283 118.748 155.57 119.161C155.858 119.563 156.256 119.765 156.764 119.765C157.148 119.765 157.479 119.64 157.757 119.391C158.035 119.132 158.174 118.835 158.174 118.499V115.363ZM163.919 117.837C163.919 118.374 164.096 118.811 164.451 119.146C164.815 119.472 165.266 119.635 165.803 119.635C166.148 119.635 166.465 119.563 166.753 119.42C167.05 119.266 167.347 119.017 167.644 118.672C167.683 118.633 167.721 118.614 167.76 118.614C167.788 118.614 167.836 118.628 167.903 118.657L168.939 119.089C169.006 119.118 169.04 119.166 169.04 119.233C169.04 119.281 169.021 119.329 168.982 119.376C168.522 120.029 168.028 120.489 167.501 120.757C166.973 121.016 166.316 121.146 165.53 121.146C164.791 121.146 164.125 120.983 163.53 120.657C162.936 120.331 162.471 119.88 162.135 119.305C161.799 118.72 161.632 118.053 161.632 117.305C161.632 116.5 161.804 115.79 162.15 115.176C162.495 114.553 162.96 114.073 163.545 113.738C164.139 113.402 164.787 113.234 165.487 113.234C166.216 113.234 166.863 113.397 167.429 113.723C167.994 114.04 168.436 114.5 168.752 115.104C169.069 115.708 169.227 116.428 169.227 117.262C169.227 117.387 169.212 117.473 169.184 117.521C169.164 117.569 169.097 117.598 168.982 117.607H164.091C163.976 117.607 163.919 117.684 163.919 117.837ZM166.81 116.399C166.916 116.399 166.983 116.389 167.012 116.37C167.04 116.341 167.055 116.284 167.055 116.197C167.055 115.948 166.997 115.699 166.882 115.449C166.767 115.2 166.599 114.994 166.379 114.831C166.158 114.668 165.89 114.586 165.573 114.586C165.094 114.586 164.7 114.754 164.394 115.09C164.087 115.426 163.938 115.857 163.948 116.384L166.81 116.399Z" fill="white"/>
<path d="M491.244 49.904L493.873 73.8266L486.854 82.5791L479.815 91.3561L455.914 93.9829L431.992 96.6121L428.496 64.8036L425 32.9951L456.808 29.4993L488.617 26.0034L491.244 49.904Z" fill="#BE185D"/>
<path d="M440.402 68.5251C440.307 68.5356 440.228 68.5154 440.164 68.4645C440.11 68.4125 440.077 68.3341 440.066 68.2293L438.966 58.2203C438.946 58.0392 439.017 57.9397 439.179 57.9219L442.139 57.5966C442.244 57.5851 442.322 57.591 442.372 57.6144C442.423 57.6377 442.468 57.6907 442.506 57.7734L445.323 63.5272C445.36 63.6003 445.398 63.6348 445.436 63.6306C445.474 63.6264 445.503 63.5846 445.523 63.5052L446.936 57.4022C446.969 57.1767 447.062 57.0555 447.215 57.0388L450.289 56.7009C450.432 56.6852 450.513 56.7631 450.532 56.9347L451.632 66.9437C451.645 67.0676 451.627 67.1613 451.576 67.2248C451.524 67.2787 451.436 67.3125 451.312 67.3261L449.468 67.5288C449.353 67.5414 449.27 67.5313 449.218 67.4984C449.175 67.4549 449.147 67.3807 449.136 67.2759L448.353 60.1552C448.346 60.0885 448.328 60.0567 448.299 60.0598C448.271 60.063 448.246 60.1042 448.226 60.1836L446.511 67.6222C446.48 67.78 446.389 67.8672 446.236 67.884L445.049 68.0144C444.878 68.0333 444.764 67.9685 444.71 67.8202L441.46 61.0286C441.423 60.9555 441.39 60.9205 441.361 60.9236C441.323 60.9278 441.309 60.9728 441.318 61.0586L442.09 68.0792C442.101 68.184 442.09 68.2576 442.056 68.3C442.031 68.3317 441.966 68.3533 441.861 68.3649L440.402 68.5251ZM455.045 63.7322C455.103 64.2661 455.327 64.6804 455.717 64.9753C456.114 65.2596 456.58 65.3724 457.114 65.3137C457.457 65.276 457.764 65.1699 458.034 64.9955C458.313 64.8105 458.581 64.5302 458.839 64.1545C458.873 64.1122 458.909 64.089 458.947 64.0848C458.976 64.0816 459.025 64.0907 459.095 64.112L460.171 64.4278C460.241 64.449 460.28 64.493 460.287 64.5598C460.292 64.6074 460.279 64.6572 460.246 64.709C459.859 65.4075 459.419 65.919 458.924 66.2435C458.428 66.5585 457.789 66.759 457.007 66.8449C456.273 66.9256 455.593 66.8363 454.966 66.5772C454.34 66.318 453.828 65.9208 453.432 65.3855C453.034 64.8407 452.795 64.1966 452.713 63.4531C452.625 62.6523 452.719 61.9281 452.995 61.2803C453.27 60.623 453.68 60.0956 454.225 59.698C454.779 59.2994 455.404 59.0619 456.1 58.9854C456.825 58.9058 457.486 58.9971 458.084 59.2594C458.681 59.5122 459.17 59.9215 459.55 60.4875C459.931 61.0535 460.167 61.7511 460.258 62.5804C460.271 62.7044 460.267 62.7917 460.243 62.8425C460.229 62.8923 460.166 62.9282 460.052 62.9503L455.191 63.4846C455.077 63.4972 455.028 63.5797 455.045 63.7322ZM457.761 61.9865C457.866 61.975 457.932 61.9581 457.958 61.9359C457.984 61.9042 457.992 61.8454 457.982 61.7596C457.955 61.5118 457.871 61.2702 457.729 61.035C457.588 60.7997 457.398 60.6131 457.161 60.4751C456.924 60.3372 456.648 60.2855 456.334 60.3201C455.857 60.3724 455.485 60.5822 455.216 60.9494C454.948 61.3165 454.847 61.7617 454.914 62.2849L457.761 61.9865ZM467.1 65.591C466.9 65.613 466.789 65.5287 466.768 65.338L466.724 64.9377C466.716 64.8614 466.688 64.8259 466.64 64.8311C466.611 64.8343 466.571 64.8581 466.518 64.9025C466.271 65.1998 465.989 65.4478 465.673 65.6465C465.367 65.8441 464.985 65.9681 464.528 66.0184C463.631 66.1169 462.87 65.8629 462.244 65.2564C461.627 64.6488 461.25 63.7207 461.113 62.4719C461.027 61.6903 461.09 60.984 461.3 60.3531C461.519 59.7116 461.848 59.1978 462.288 58.8118C462.728 58.4258 463.234 58.2014 463.806 58.1385C464.178 58.0977 464.518 58.1229 464.828 58.2144C465.146 58.3048 465.458 58.4635 465.763 58.6905C465.835 58.7308 465.885 58.7494 465.913 58.7462C465.98 58.7389 466.007 58.6733 465.993 58.5494L465.633 55.275C465.614 55.1034 465.681 55.0093 465.834 54.9925L467.578 54.8008C467.645 54.7934 467.7 54.8115 467.743 54.855C467.796 54.8974 467.827 54.9615 467.837 55.0473L468.94 65.0849C468.951 65.1897 468.936 65.2686 468.894 65.3215C468.851 65.3744 468.768 65.4077 468.644 65.4213L467.1 65.591ZM466.155 60.0221C465.91 59.8079 465.671 59.6557 465.439 59.5654C465.217 59.474 464.972 59.443 464.705 59.4723C464.2 59.5279 463.823 59.7816 463.573 60.2335C463.323 60.6759 463.245 61.3308 463.341 62.1982C463.437 63.0752 463.651 63.7029 463.982 64.0814C464.312 64.4503 464.729 64.607 465.235 64.5515C465.616 64.5096 465.931 64.3495 466.18 64.0713C466.428 63.7835 466.534 63.4728 466.498 63.1392L466.155 60.0221ZM471.809 56.1158C471.835 56.3541 471.72 56.4874 471.462 56.5156L469.918 56.6854C469.804 56.6979 469.72 56.683 469.667 56.6406C469.613 56.5886 469.58 56.5055 469.567 56.3911L469.402 54.8897C469.381 54.6991 469.452 54.5948 469.614 54.577L471.387 54.3822C471.454 54.3748 471.509 54.3929 471.552 54.4364C471.605 54.4788 471.636 54.5429 471.646 54.6287L471.809 56.1158ZM472.715 64.6265C472.729 64.7504 472.71 64.8441 472.659 64.9076C472.608 64.9616 472.51 64.9964 472.367 65.0121L470.866 65.1771C470.751 65.1897 470.668 65.1748 470.615 65.1323C470.562 65.0899 470.53 65.0163 470.518 64.9114L469.748 57.9051C469.728 57.724 469.799 57.6246 469.961 57.6068L471.706 57.415C471.849 57.3993 471.929 57.4725 471.947 57.6345L472.715 64.6265ZM478.43 63.6077C477.865 64.2583 477.149 64.6313 476.281 64.7266C475.566 64.8052 474.978 64.6769 474.517 64.3417C474.054 63.997 473.789 63.5148 473.721 62.8952C473.633 62.0945 473.929 61.4107 474.61 60.8439C475.291 60.2771 476.273 59.9087 477.556 59.7386L478.066 59.6392C478.124 59.6329 478.17 59.6133 478.205 59.5806C478.248 59.5372 478.266 59.4821 478.259 59.4154L478.226 59.1151C478.185 58.7434 478.049 58.4689 477.817 58.2918C477.585 58.1147 477.274 58.0476 476.883 58.0905C476.216 58.1639 475.752 58.5043 475.49 59.1119C475.463 59.2114 475.406 59.2659 475.32 59.2753C475.273 59.2805 475.229 59.2805 475.19 59.2751L473.724 59.1034C473.636 59.0938 473.588 59.0461 473.578 58.9603C473.572 58.9031 473.583 58.8295 473.612 58.7395C473.78 58.1615 474.139 57.7023 474.69 57.362C475.251 57.0206 475.965 56.8022 476.832 56.7069C477.967 56.5822 478.81 56.7018 479.361 57.0657C479.911 57.4201 480.228 57.9786 480.312 58.7412L480.864 63.7599C480.876 63.8743 480.866 63.9574 480.833 64.0093C480.8 64.0612 480.731 64.0928 480.627 64.1044L479.154 64.2662C479.058 64.2767 478.983 64.2512 478.928 64.1897C478.883 64.1272 478.843 64.0302 478.81 63.8989L478.761 63.5859C478.742 63.5011 478.699 63.4624 478.632 63.4698C478.594 63.4739 478.527 63.5199 478.43 63.6077ZM478.425 60.9311C478.416 60.8453 478.395 60.7849 478.362 60.7499C478.329 60.7149 478.27 60.7021 478.184 60.7116L477.787 60.7842C477.237 60.8735 476.761 61.0609 476.358 61.3464C475.964 61.6212 475.789 61.9636 475.834 62.3735C475.866 62.6595 475.991 62.8773 476.21 63.0268C476.428 63.1669 476.714 63.2175 477.066 63.1788C477.505 63.1306 477.862 62.961 478.139 62.6701C478.426 62.3877 478.556 62.1178 478.528 61.8605L478.425 60.9311Z" fill="white"/>
<path d="M121.093 214.178L127.505 237.375L121.972 247.135L116.424 256.922L93.2485 263.329L70.0518 269.74L61.5262 238.897L53.0006 208.054L83.8439 199.528L114.687 191.003L121.093 214.178Z" fill="#15803D"/>
<path d="M74.9378 228.204C76.4754 227.831 77.5155 227.583 78.0582 227.461C79.9169 227.068 81.4057 227.204 82.5248 227.87C83.6438 228.536 84.397 229.665 84.7844 231.259C85.183 232.899 85.0239 234.294 84.307 235.446C83.5901 236.597 82.3231 237.393 80.506 237.835L77.4728 238.572C77.361 238.599 77.2715 238.597 77.2042 238.564C77.1441 238.519 77.0992 238.436 77.0698 238.315L74.6983 228.559C74.6733 228.456 74.6797 228.381 74.7172 228.332C74.7525 228.274 74.826 228.231 74.9378 228.204ZM77.6235 229.387C77.5396 229.407 77.5136 229.483 77.5453 229.613L79.132 236.141C79.1501 236.215 79.1718 236.264 79.1973 236.288C79.232 236.309 79.2867 236.311 79.3612 236.292L79.6268 236.228C80.8009 235.942 81.6018 235.462 82.0296 234.785C82.4644 234.097 82.5289 233.124 82.2231 231.866C81.9399 230.701 81.4985 229.921 80.8986 229.524C80.2988 229.127 79.4936 229.021 78.4829 229.208L77.6235 229.387ZM91.3467 234.445C90.8699 235.163 90.2075 235.625 89.3595 235.831C88.6606 236.001 88.0609 235.949 87.5602 235.676C87.0574 235.394 86.7323 234.95 86.5851 234.344C86.3948 233.561 86.6007 232.845 87.2027 232.195C87.8047 231.546 88.7313 231.054 89.9825 230.72L90.4755 230.556C90.5314 230.543 90.5746 230.517 90.605 230.48C90.6426 230.432 90.6534 230.375 90.6376 230.309L90.5662 230.016C90.4779 229.652 90.3074 229.398 90.0548 229.252C89.8023 229.106 89.485 229.08 89.1029 229.173C88.4506 229.331 88.034 229.728 87.8531 230.365C87.8385 230.467 87.7892 230.528 87.7054 230.548C87.6588 230.56 87.6157 230.565 87.5762 230.565L86.1003 230.583C86.0119 230.585 85.9575 230.544 85.9371 230.46C85.9235 230.404 85.9251 230.33 85.942 230.237C86.0343 229.642 86.3318 229.14 86.8345 228.732C87.3466 228.321 88.0266 228.013 88.8746 227.807C89.9835 227.537 90.8347 227.548 91.4282 227.838C92.0195 228.118 92.4057 228.631 92.5869 229.377L93.7795 234.283C93.8067 234.395 93.8073 234.478 93.7814 234.534C93.7554 234.59 93.6912 234.63 93.5887 234.655L92.149 235.005C92.0558 235.027 91.978 235.012 91.9155 234.958C91.8624 234.902 91.8107 234.811 91.7603 234.685L91.6716 234.381C91.6419 234.299 91.5944 234.266 91.5292 234.282C91.4919 234.291 91.4311 234.345 91.3467 234.445ZM90.9977 231.791C90.9773 231.707 90.9486 231.65 90.9116 231.62C90.8746 231.589 90.8141 231.584 90.7303 231.604L90.3457 231.728C89.812 231.887 89.3638 232.134 89.0011 232.469C88.6455 232.792 88.5164 233.154 88.6138 233.555C88.6817 233.834 88.8339 234.034 89.0704 234.154C89.3046 234.265 89.5941 234.279 89.9388 234.195C90.3675 234.091 90.7003 233.877 90.9374 233.553C91.186 233.236 91.2797 232.951 91.2186 232.7L90.9977 231.791ZM96.991 227.551C96.8885 227.576 96.8508 227.644 96.878 227.756L97.6968 231.125C97.7739 231.442 97.9039 231.652 98.087 231.755C98.2678 231.85 98.5212 231.857 98.8474 231.778L99.6022 231.594C99.6674 231.579 99.7243 231.589 99.7729 231.627C99.8193 231.655 99.8515 231.706 99.8696 231.781L100.063 232.637C100.108 232.823 100.033 232.96 99.8369 233.047C99.4591 233.198 98.9115 233.361 98.194 233.535C97.5417 233.694 96.9965 233.664 96.5583 233.445C96.1201 233.225 95.8297 232.822 95.687 232.235L94.7357 228.321C94.7017 228.182 94.6241 228.127 94.503 228.156L93.6504 228.363C93.4733 228.406 93.3655 228.349 93.327 228.19L93.0756 227.156C93.0416 227.016 93.1085 226.926 93.2762 226.885L94.2407 226.651C94.3152 226.632 94.3494 226.57 94.3431 226.463L94.0223 224.291C94.0025 224.128 94.0531 224.032 94.1742 224.002L95.6978 223.632C95.763 223.616 95.8199 223.627 95.8685 223.664C95.9265 223.7 95.9656 223.759 95.986 223.843L96.4956 225.94C96.5183 226.033 96.5762 226.068 96.6694 226.045L98.137 225.689C98.3048 225.648 98.4068 225.702 98.443 225.851L98.6944 226.885C98.7329 227.044 98.659 227.146 98.4726 227.191L96.991 227.551ZM105.256 231.064C104.779 231.782 104.117 232.244 103.269 232.45C102.57 232.62 101.97 232.568 101.47 232.295C100.967 232.013 100.642 231.569 100.494 230.963C100.304 230.18 100.51 229.464 101.112 228.814C101.714 228.165 102.641 227.673 103.892 227.339L104.385 227.175C104.441 227.161 104.484 227.136 104.514 227.099C104.552 227.051 104.563 226.994 104.547 226.928L104.476 226.635C104.387 226.271 104.217 226.017 103.964 225.871C103.712 225.725 103.394 225.699 103.012 225.791C102.36 225.95 101.943 226.347 101.762 226.984C101.748 227.086 101.699 227.147 101.615 227.167C101.568 227.179 101.525 227.184 101.486 227.184L100.01 227.202C99.9212 227.204 99.8668 227.163 99.8464 227.079C99.8328 227.023 99.8345 226.949 99.8514 226.856C99.9436 226.261 100.241 225.759 100.744 225.351C101.256 224.94 101.936 224.632 102.784 224.426C103.893 224.156 104.744 224.167 105.338 224.456C105.929 224.737 106.315 225.25 106.496 225.996L107.689 230.902C107.716 231.014 107.717 231.097 107.691 231.153C107.665 231.209 107.601 231.249 107.498 231.274L106.058 231.624C105.965 231.646 105.887 231.631 105.825 231.577C105.772 231.521 105.72 231.43 105.67 231.304L105.581 231C105.551 230.918 105.504 230.885 105.439 230.901C105.401 230.91 105.34 230.964 105.256 231.064ZM104.907 228.41C104.887 228.326 104.858 228.269 104.821 228.239C104.784 228.208 104.723 228.203 104.64 228.223L104.255 228.346C103.721 228.506 103.273 228.753 102.91 229.088C102.555 229.411 102.426 229.773 102.523 230.174C102.591 230.453 102.743 230.653 102.98 230.773C103.214 230.884 103.503 230.898 103.848 230.814C104.277 230.71 104.61 230.496 104.847 230.172C105.095 229.854 105.189 229.57 105.128 229.319L104.907 228.41Z" fill="white"/>
<path d="M490.669 265.524L488.088 289.452L479.35 296.489L470.587 303.546L446.681 300.968L422.753 298.387L426.185 266.571L429.616 234.756L461.431 238.187L493.247 241.618L490.669 265.524Z" fill="#9E77ED"/>
<path d="M443.493 262.992C443.501 262.916 443.532 262.857 443.584 262.814C443.647 262.773 443.721 262.756 443.807 262.766L452.016 263.651C452.207 263.672 452.293 263.768 452.274 263.939L452.131 265.269C452.115 265.412 452.022 265.475 451.85 265.456L449.176 265.168C449.071 265.156 449.013 265.198 449.003 265.294L448.098 273.689C448.078 273.87 447.987 273.952 447.825 273.934L445.78 273.714C445.637 273.698 445.574 273.61 445.592 273.448L446.496 265.067C446.503 265 446.494 264.951 446.468 264.919C446.452 264.888 446.415 264.87 446.358 264.864L443.598 264.566C443.417 264.547 443.334 264.465 443.349 264.322L443.493 262.992ZM453.047 271.315C452.99 271.849 453.119 272.301 453.436 272.673C453.764 273.036 454.194 273.247 454.728 273.304C455.071 273.341 455.394 273.304 455.695 273.192C456.007 273.071 456.33 272.855 456.662 272.544C456.704 272.51 456.745 272.495 456.783 272.499C456.811 272.502 456.857 272.521 456.921 272.557L457.905 273.097C457.968 273.133 457.996 273.184 457.989 273.251C457.984 273.299 457.96 273.344 457.917 273.388C457.389 273.987 456.849 274.391 456.295 274.602C455.743 274.803 455.076 274.861 454.295 274.777C453.56 274.698 452.915 274.464 452.359 274.076C451.803 273.688 451.389 273.19 451.117 272.582C450.846 271.965 450.75 271.284 450.831 270.54C450.917 269.739 451.165 269.052 451.574 268.479C451.984 267.896 452.498 267.469 453.115 267.199C453.742 266.929 454.404 266.831 455.1 266.906C455.825 266.984 456.451 267.216 456.978 267.601C457.507 267.976 457.896 268.481 458.146 269.116C458.396 269.75 458.476 270.482 458.386 271.312C458.373 271.436 458.35 271.52 458.316 271.564C458.292 271.61 458.222 271.631 458.106 271.629L453.244 271.104C453.129 271.092 453.064 271.162 453.047 271.315ZM456.076 270.194C456.181 270.206 456.249 270.203 456.28 270.187C456.311 270.162 456.332 270.106 456.341 270.02C456.368 269.773 456.337 269.518 456.25 269.258C456.162 268.998 456.017 268.775 455.815 268.589C455.614 268.404 455.355 268.294 455.041 268.26C454.564 268.208 454.155 268.333 453.814 268.634C453.473 268.935 453.279 269.348 453.232 269.873L456.076 270.194ZM465.999 275.402C466.097 275.567 466.142 275.688 466.134 275.764C466.124 275.86 466.028 275.897 465.847 275.878L464.016 275.681C463.787 275.656 463.634 275.562 463.555 275.399L462.305 273.167C462.242 273.034 462.192 272.966 462.154 272.962C462.116 272.958 462.052 273.009 461.964 273.115L460.237 275.041C460.125 275.184 459.959 275.243 459.74 275.219L458.567 275.093C458.339 275.068 458.231 274.989 458.246 274.856C458.257 274.751 458.328 274.633 458.457 274.502L461.128 271.738C461.195 271.658 461.231 271.594 461.236 271.547C461.243 271.48 461.218 271.395 461.162 271.293L459.184 267.896C459.151 267.845 459.138 267.785 459.146 267.719C459.152 267.661 459.181 267.612 459.234 267.569C459.287 267.527 459.356 267.51 459.442 267.519L461.187 267.707C461.311 267.721 461.399 267.75 461.452 267.794C461.516 267.83 461.572 267.894 461.62 267.985L462.748 270.002C462.787 270.084 462.826 270.127 462.864 270.131C462.893 270.134 462.935 270.1 462.991 270.029L464.452 268.291C464.518 268.211 464.581 268.16 464.642 268.138C464.713 268.107 464.815 268.099 464.948 268.113L466.235 268.252C466.397 268.269 466.473 268.326 466.463 268.421C466.458 268.469 466.423 268.528 466.357 268.598L463.915 271.257C463.85 271.317 463.814 271.381 463.807 271.448C463.802 271.495 463.827 271.575 463.883 271.687L465.999 275.402ZM470.487 270.244C470.382 270.233 470.323 270.284 470.311 270.399L469.939 273.845C469.904 274.169 469.955 274.411 470.092 274.571C470.23 274.721 470.466 274.814 470.8 274.85L471.572 274.933C471.639 274.94 471.689 274.97 471.722 275.021C471.756 275.064 471.769 275.123 471.761 275.199L471.652 276.07C471.632 276.261 471.515 276.364 471.301 276.379C470.894 276.393 470.324 276.361 469.59 276.282C468.922 276.21 468.419 275.996 468.082 275.641C467.744 275.287 467.607 274.809 467.672 274.208L468.104 270.204C468.119 270.061 468.065 269.983 467.941 269.969L467.069 269.875C466.887 269.856 466.806 269.765 466.823 269.603L466.937 268.544C466.953 268.401 467.046 268.339 467.218 268.358L468.205 268.464C468.281 268.472 468.334 268.425 468.365 268.322L468.799 266.17C468.836 266.01 468.916 265.937 469.04 265.95L470.599 266.118C470.666 266.125 470.715 266.155 470.748 266.207C470.791 266.259 470.808 266.329 470.798 266.415L470.567 268.56C470.557 268.655 470.599 268.708 470.695 268.718L472.196 268.88C472.368 268.899 472.445 268.984 472.429 269.137L472.315 270.195C472.297 270.357 472.193 270.428 472.003 270.407L470.487 270.244Z" fill="white"/>
<path d="M311 71.0471V95.1138L303.067 103.047L295.112 111.003H271.067H247V79.0027V47.0027H279H311V71.0471Z" fill="#EAAA08"/>
<path d="M262.713 73.3293C264.295 73.3293 265.364 73.3341 265.921 73.3437C267.819 73.4012 269.234 73.8855 270.164 74.7965C271.094 75.7076 271.559 76.983 271.559 78.6228C271.559 80.3106 271.075 81.6292 270.106 82.5786C269.138 83.528 267.719 84.0027 265.849 84.0027H262.727C262.612 84.0027 262.526 83.9787 262.468 83.9308C262.42 83.8732 262.396 83.7821 262.396 83.6575V73.617C262.396 73.5115 262.42 73.4396 262.468 73.4012C262.516 73.3533 262.598 73.3293 262.713 73.3293ZM265.043 75.113C264.957 75.113 264.914 75.1801 264.914 75.3144V82.032C264.914 82.1087 264.923 82.1615 264.942 82.1902C264.971 82.219 265.024 82.2334 265.101 82.2334H265.374C266.582 82.2334 267.474 81.9553 268.049 81.3991C268.634 80.8333 268.927 79.9031 268.927 78.6085C268.927 77.4097 268.682 76.5467 268.193 76.0192C267.704 75.4918 266.947 75.1993 265.921 75.1418L265.043 75.113ZM277.183 83.2691C276.55 83.854 275.798 84.1465 274.925 84.1465C274.206 84.1465 273.635 83.9547 273.213 83.5711C272.791 83.178 272.58 82.6697 272.58 82.0464C272.58 81.2408 272.949 80.5935 273.688 80.1045C274.426 79.6154 275.443 79.3565 276.737 79.3277L277.255 79.2845C277.313 79.2845 277.361 79.2701 277.399 79.2414C277.447 79.203 277.471 79.1503 277.471 79.0831V78.7811C277.471 78.4071 277.366 78.1194 277.155 77.918C276.944 77.7166 276.641 77.6159 276.248 77.6159C275.577 77.6159 275.078 77.9036 274.752 78.479C274.714 78.5749 274.652 78.6228 274.565 78.6228C274.517 78.6228 274.474 78.618 274.436 78.6085L272.997 78.2776C272.911 78.2584 272.868 78.2057 272.868 78.1194C272.868 78.0618 272.887 77.9899 272.925 77.9036C273.156 77.3474 273.563 76.9302 274.148 76.6521C274.743 76.374 275.476 76.235 276.349 76.235C277.49 76.235 278.315 76.446 278.823 76.8679C279.331 77.2803 279.586 77.87 279.586 78.6372V83.6862C279.586 83.8013 279.566 83.8828 279.528 83.9308C279.49 83.9787 279.418 84.0027 279.312 84.0027H277.831C277.735 84.0027 277.663 83.9691 277.615 83.902C277.576 83.8349 277.548 83.7342 277.529 83.5999L277.514 83.2835C277.505 83.1971 277.466 83.154 277.399 83.154C277.361 83.154 277.289 83.1924 277.183 83.2691ZM277.471 80.6079C277.471 80.5216 277.457 80.4593 277.428 80.4209C277.399 80.3826 277.342 80.3634 277.255 80.3634L276.852 80.3921C276.296 80.4209 275.802 80.5552 275.371 80.7949C274.949 81.0251 274.738 81.3463 274.738 81.7587C274.738 82.0464 274.839 82.2765 275.04 82.4491C275.241 82.6122 275.519 82.6937 275.874 82.6937C276.315 82.6937 276.689 82.5642 276.996 82.3053C277.313 82.056 277.471 81.8018 277.471 81.5429V80.6079ZM284.296 77.9036C284.191 77.9036 284.138 77.9611 284.138 78.0762V81.5429C284.138 81.869 284.215 82.1039 284.368 82.2478C284.522 82.382 284.766 82.4491 285.102 82.4491H285.878C285.946 82.4491 285.998 82.4731 286.037 82.5211C286.075 82.5594 286.094 82.617 286.094 82.6937L286.08 83.5711C286.08 83.7629 285.974 83.878 285.763 83.9164C285.361 83.9739 284.79 84.0027 284.052 84.0027C283.38 84.0027 282.858 83.8445 282.484 83.528C282.11 83.2115 281.923 82.7512 281.923 82.1471V78.1194C281.923 77.9755 281.86 77.9036 281.736 77.9036H280.858C280.676 77.9036 280.585 77.8221 280.585 77.6591V76.5946C280.585 76.4508 280.671 76.3788 280.844 76.3788H281.836C281.913 76.3788 281.961 76.3261 281.98 76.2206L282.182 74.0341C282.201 73.8711 282.273 73.7896 282.397 73.7896H283.965C284.032 73.7896 284.085 73.8136 284.124 73.8615C284.172 73.9095 284.195 73.9766 284.195 74.0629V76.2206C284.195 76.3165 284.243 76.3645 284.339 76.3645H285.85C286.022 76.3645 286.109 76.4412 286.109 76.5946V77.6591C286.109 77.8221 286.013 77.9036 285.821 77.9036H284.296ZM291.498 83.2691C290.865 83.854 290.112 84.1465 289.239 84.1465C288.52 84.1465 287.949 83.9547 287.528 83.5711C287.106 83.178 286.895 82.6697 286.895 82.0464C286.895 81.2408 287.264 80.5935 288.002 80.1045C288.741 79.6154 289.757 79.3565 291.052 79.3277L291.57 79.2845C291.627 79.2845 291.675 79.2701 291.713 79.2414C291.761 79.203 291.785 79.1503 291.785 79.0831V78.7811C291.785 78.4071 291.68 78.1194 291.469 77.918C291.258 77.7166 290.956 77.6159 290.563 77.6159C289.891 77.6159 289.393 77.9036 289.067 78.479C289.028 78.5749 288.966 78.6228 288.88 78.6228C288.832 78.6228 288.789 78.618 288.75 78.6085L287.312 78.2776C287.225 78.2584 287.182 78.2057 287.182 78.1194C287.182 78.0618 287.201 77.9899 287.24 77.9036C287.47 77.3474 287.878 76.9302 288.463 76.6521C289.057 76.374 289.791 76.235 290.663 76.235C291.805 76.235 292.629 76.446 293.138 76.8679C293.646 77.2803 293.9 77.87 293.9 78.6372V83.6862C293.9 83.8013 293.881 83.8828 293.842 83.9308C293.804 83.9787 293.732 84.0027 293.627 84.0027H292.145C292.049 84.0027 291.977 83.9691 291.929 83.902C291.891 83.8349 291.862 83.7342 291.843 83.5999L291.829 83.2835C291.819 83.1971 291.781 83.154 291.713 83.154C291.675 83.154 291.603 83.1924 291.498 83.2691ZM291.785 80.6079C291.785 80.5216 291.771 80.4593 291.742 80.4209C291.713 80.3826 291.656 80.3634 291.57 80.3634L291.167 80.3921C290.611 80.4209 290.117 80.5552 289.685 80.7949C289.263 81.0251 289.052 81.3463 289.052 81.7587C289.052 82.0464 289.153 82.2765 289.354 82.4491C289.556 82.6122 289.834 82.6937 290.189 82.6937C290.63 82.6937 291.004 82.5642 291.311 82.3053C291.627 82.056 291.785 81.8018 291.785 81.5429V80.6079Z" fill="white"/>
<rect width="157.991" height="199.044" rx="2.2868" transform="matrix(0.999953 0.00973941 0.0104875 0.999945 187.426 264.219)" fill="white"/>
<line opacity="0.4" y1="-1.42925" x2="117.198" y2="-1.42925" transform="matrix(0.999953 0.00973941 0.0104875 0.999945 209.689 315.875)" stroke="#4338CA" stroke-width="2.8585"/>
<line opacity="0.4" y1="-1.42925" x2="117.198" y2="-1.42925" transform="matrix(0.999953 0.00973941 0.0104875 0.999945 209.809 327.308)" stroke="#4338CA" stroke-width="2.8585"/>
<line opacity="0.4" y1="-1.42925" x2="117.198" y2="-1.42925" transform="matrix(0.999953 0.00973941 0.0104875 0.999945 209.929 338.742)" stroke="#4338CA" stroke-width="2.8585"/>
<line opacity="0.4" y1="-1.42925" x2="117.198" y2="-1.42925" transform="matrix(0.999953 0.00973941 0.0104875 0.999945 210.049 350.175)" stroke="#4338CA" stroke-width="2.8585"/>
<line opacity="0.4" y1="-1.42925" x2="117.198" y2="-1.42925" transform="matrix(0.999953 0.00973941 0.0104875 0.999945 210.168 361.608)" stroke="#4338CA" stroke-width="2.8585"/>
<line opacity="0.4" y1="-1.42925" x2="117.198" y2="-1.42925" transform="matrix(0.999953 0.00973941 0.0104875 0.999945 210.289 373.042)" stroke="#4338CA" stroke-width="2.8585"/>
<line opacity="0.4" y1="-1.42925" x2="117.198" y2="-1.42925" transform="matrix(0.999953 0.00973941 0.0104875 0.999945 210.409 384.475)" stroke="#4338CA" stroke-width="2.8585"/>
<rect x="1.15534" y="1.15447" width="155.704" height="196.758" rx="1.1434" transform="matrix(0.999953 0.00973941 0.0104875 0.999945 187.414 264.207)" stroke="#4338CA" stroke-opacity="0.4" stroke-width="2.2868"/>
<rect width="157.991" height="199.044" rx="2.2868" transform="matrix(0.999953 0.00973941 0.0104875 0.999945 179.133 254.115)" fill="white"/>
<line opacity="0.4" y1="-1.42925" x2="117.198" y2="-1.42925" transform="matrix(0.999953 0.00973941 0.0104875 0.999945 201.397 305.774)" stroke="#4338CA" stroke-width="2.8585"/>
<line opacity="0.4" y1="-1.42925" x2="117.198" y2="-1.42925" transform="matrix(0.999953 0.00973941 0.0104875 0.999945 201.517 317.207)" stroke="#4338CA" stroke-width="2.8585"/>
<line opacity="0.4" y1="-1.42925" x2="117.198" y2="-1.42925" transform="matrix(0.999953 0.00973941 0.0104875 0.999945 201.637 328.64)" stroke="#4338CA" stroke-width="2.8585"/>
<line opacity="0.4" y1="-1.42925" x2="117.198" y2="-1.42925" transform="matrix(0.999953 0.00973941 0.0104875 0.999945 201.757 340.074)" stroke="#4338CA" stroke-width="2.8585"/>
<line opacity="0.4" y1="-1.42925" x2="117.198" y2="-1.42925" transform="matrix(0.999953 0.00973941 0.0104875 0.999945 201.876 351.507)" stroke="#4338CA" stroke-width="2.8585"/>
<line opacity="0.4" y1="-1.42925" x2="117.198" y2="-1.42925" transform="matrix(0.999953 0.00973941 0.0104875 0.999945 201.997 362.941)" stroke="#4338CA" stroke-width="2.8585"/>
<line opacity="0.4" y1="-1.42925" x2="117.198" y2="-1.42925" transform="matrix(0.999953 0.00973941 0.0104875 0.999945 202.117 374.374)" stroke="#4338CA" stroke-width="2.8585"/>
<line opacity="0.4" y1="-1.42925" x2="117.198" y2="-1.42925" transform="matrix(0.999953 0.00973941 0.0104875 0.999945 202.236 385.807)" stroke="#4338CA" stroke-width="2.8585"/>
<rect x="1.15534" y="1.15447" width="155.704" height="196.758" rx="1.1434" transform="matrix(0.999953 0.00973941 0.0104875 0.999945 179.121 254.104)" stroke="#4338CA" stroke-opacity="0.4" stroke-width="2.2868"/>
<rect width="156.912" height="197.685" rx="2.27118" transform="matrix(0.999953 0.00973941 0.0104875 0.999945 172.661 241.518)" fill="white"/>
<line opacity="0.4" x1="1.41949" y1="-1.41949" x2="114.979" y2="-1.41949" transform="matrix(0.999953 0.00973941 0.0104875 0.999945 193 282.001)" stroke="#4338CA" stroke-width="2.83898" stroke-linecap="round"/>
<line opacity="0.4" x1="1.41949" y1="-1.41949" x2="114.979" y2="-1.41949" transform="matrix(0.999953 0.00973941 0.0104875 0.999945 193.119 293.356)" stroke="#4338CA" stroke-width="2.83898" stroke-linecap="round"/>
<line opacity="0.4" x1="1.41949" y1="-1.41949" x2="114.979" y2="-1.41949" transform="matrix(0.999953 0.00973941 0.0104875 0.999945 193.238 304.711)" stroke="#4338CA" stroke-width="2.83898" stroke-linecap="round"/>
<line opacity="0.4" x1="1.41949" y1="-1.41949" x2="114.979" y2="-1.41949" transform="matrix(0.999953 0.00973941 0.0104875 0.999945 193.357 316.067)" stroke="#4338CA" stroke-width="2.83898" stroke-linecap="round"/>
<line opacity="0.4" x1="1.41949" y1="-1.41949" x2="114.979" y2="-1.41949" transform="matrix(0.999953 0.00973941 0.0104875 0.999945 193.477 327.422)" stroke="#4338CA" stroke-width="2.83898" stroke-linecap="round"/>
<line opacity="0.4" x1="1.41949" y1="-1.41949" x2="114.979" y2="-1.41949" transform="matrix(0.999953 0.00973941 0.0104875 0.999945 193.596 338.777)" stroke="#4338CA" stroke-width="2.83898" stroke-linecap="round"/>
<line opacity="0.4" x1="1.41949" y1="-1.41949" x2="114.979" y2="-1.41949" transform="matrix(0.999953 0.00973941 0.0104875 0.999945 193.714 350.132)" stroke="#4338CA" stroke-width="2.83898" stroke-linecap="round"/>
<line opacity="0.4" x1="1.41949" y1="-1.41949" x2="114.979" y2="-1.41949" transform="matrix(0.999953 0.00973941 0.0104875 0.999945 193.833 361.488)" stroke="#4338CA" stroke-width="2.83898" stroke-linecap="round"/>
<line opacity="0.4" x1="1.41949" y1="-1.41949" x2="57.0635" y2="-1.41949" transform="matrix(0.999953 0.00973941 0.0104875 0.999945 193.953 372.843)" stroke="#4338CA" stroke-width="2.83898" stroke-linecap="round"/>
<rect x="1.14745" y="1.14659" width="154.641" height="195.414" rx="1.13559" transform="matrix(0.999953 0.00973941 0.0104875 0.999945 172.649 241.507)" stroke="#4338CA" stroke-opacity="0.4" stroke-width="2.27118"/>
</g>
<defs>
<clipPath id="clip0_262_4563">
<rect width="496" height="390" fill="white"/>
</clipPath>
</defs>
</svg>
