<svg width="380" height="390" viewBox="0 0 380 390" fill="none" xmlns="http://www.w3.org/2000/svg">
<g clip-path="url(#clip0_262_4564)">
<rect width="157.991" height="199.044" rx="2.2868" transform="matrix(0.999953 0.00973941 0.0104875 0.999945 117.426 264.219)" fill="white"/>
<line opacity="0.4" y1="-1.42925" x2="117.198" y2="-1.42925" transform="matrix(0.999953 0.00973941 0.0104875 0.999945 139.689 315.875)" stroke="#4338CA" stroke-width="2.8585"/>
<line opacity="0.4" y1="-1.42925" x2="117.198" y2="-1.42925" transform="matrix(0.999953 0.00973941 0.0104875 0.999945 139.809 327.308)" stroke="#4338CA" stroke-width="2.8585"/>
<line opacity="0.4" y1="-1.42925" x2="117.198" y2="-1.42925" transform="matrix(0.999953 0.00973941 0.0104875 0.999945 139.929 338.742)" stroke="#4338CA" stroke-width="2.8585"/>
<line opacity="0.4" y1="-1.42925" x2="117.198" y2="-1.42925" transform="matrix(0.999953 0.00973941 0.0104875 0.999945 140.049 350.175)" stroke="#4338CA" stroke-width="2.8585"/>
<line opacity="0.4" y1="-1.42925" x2="117.198" y2="-1.42925" transform="matrix(0.999953 0.00973941 0.0104875 0.999945 140.169 361.608)" stroke="#4338CA" stroke-width="2.8585"/>
<line opacity="0.4" y1="-1.42925" x2="117.198" y2="-1.42925" transform="matrix(0.999953 0.00973941 0.0104875 0.999945 140.289 373.042)" stroke="#4338CA" stroke-width="2.8585"/>
<line opacity="0.4" y1="-1.42925" x2="117.198" y2="-1.42925" transform="matrix(0.999953 0.00973941 0.0104875 0.999945 140.408 384.475)" stroke="#4338CA" stroke-width="2.8585"/>
<rect x="1.15534" y="1.15447" width="155.704" height="196.758" rx="1.1434" transform="matrix(0.999953 0.00973941 0.0104875 0.999945 117.414 264.207)" stroke="#4338CA" stroke-opacity="0.4" stroke-width="2.2868"/>
<rect width="157.991" height="199.044" rx="2.2868" transform="matrix(0.999953 0.00973941 0.0104875 0.999945 109.133 254.115)" fill="white"/>
<line opacity="0.4" y1="-1.42925" x2="117.198" y2="-1.42925" transform="matrix(0.999953 0.00973941 0.0104875 0.999945 131.396 305.774)" stroke="#4338CA" stroke-width="2.8585"/>
<line opacity="0.4" y1="-1.42925" x2="117.198" y2="-1.42925" transform="matrix(0.999953 0.00973941 0.0104875 0.999945 131.516 317.207)" stroke="#4338CA" stroke-width="2.8585"/>
<line opacity="0.4" y1="-1.42925" x2="117.198" y2="-1.42925" transform="matrix(0.999953 0.00973941 0.0104875 0.999945 131.636 328.64)" stroke="#4338CA" stroke-width="2.8585"/>
<line opacity="0.4" y1="-1.42925" x2="117.198" y2="-1.42925" transform="matrix(0.999953 0.00973941 0.0104875 0.999945 131.756 340.074)" stroke="#4338CA" stroke-width="2.8585"/>
<line opacity="0.4" y1="-1.42925" x2="117.198" y2="-1.42925" transform="matrix(0.999953 0.00973941 0.0104875 0.999945 131.876 351.507)" stroke="#4338CA" stroke-width="2.8585"/>
<line opacity="0.4" y1="-1.42925" x2="117.198" y2="-1.42925" transform="matrix(0.999953 0.00973941 0.0104875 0.999945 131.996 362.941)" stroke="#4338CA" stroke-width="2.8585"/>
<line opacity="0.4" y1="-1.42925" x2="117.198" y2="-1.42925" transform="matrix(0.999953 0.00973941 0.0104875 0.999945 132.116 374.374)" stroke="#4338CA" stroke-width="2.8585"/>
<line opacity="0.4" y1="-1.42925" x2="117.198" y2="-1.42925" transform="matrix(0.999953 0.00973941 0.0104875 0.999945 132.236 385.807)" stroke="#4338CA" stroke-width="2.8585"/>
<rect x="1.15534" y="1.15447" width="155.704" height="196.758" rx="1.1434" transform="matrix(0.999953 0.00973941 0.0104875 0.999945 109.121 254.104)" stroke="#4338CA" stroke-opacity="0.4" stroke-width="2.2868"/>
<rect width="156.912" height="197.685" rx="2.27118" transform="matrix(0.999953 0.00973941 0.0104875 0.999945 102.661 241.518)" fill="white"/>
<line opacity="0.4" x1="1.41949" y1="-1.41949" x2="114.979" y2="-1.41949" transform="matrix(0.999953 0.00973941 0.0104875 0.999945 123 282.001)" stroke="#4338CA" stroke-width="2.83898" stroke-linecap="round"/>
<line opacity="0.4" x1="1.41949" y1="-1.41949" x2="114.979" y2="-1.41949" transform="matrix(0.999953 0.00973941 0.0104875 0.999945 123.119 293.356)" stroke="#4338CA" stroke-width="2.83898" stroke-linecap="round"/>
<line opacity="0.4" x1="1.41949" y1="-1.41949" x2="114.979" y2="-1.41949" transform="matrix(0.999953 0.00973941 0.0104875 0.999945 123.238 304.711)" stroke="#4338CA" stroke-width="2.83898" stroke-linecap="round"/>
<line opacity="0.4" x1="1.41949" y1="-1.41949" x2="114.979" y2="-1.41949" transform="matrix(0.999953 0.00973941 0.0104875 0.999945 123.357 316.067)" stroke="#4338CA" stroke-width="2.83898" stroke-linecap="round"/>
<line opacity="0.4" x1="1.41949" y1="-1.41949" x2="114.979" y2="-1.41949" transform="matrix(0.999953 0.00973941 0.0104875 0.999945 123.476 327.422)" stroke="#4338CA" stroke-width="2.83898" stroke-linecap="round"/>
<line opacity="0.4" x1="1.41949" y1="-1.41949" x2="114.979" y2="-1.41949" transform="matrix(0.999953 0.00973941 0.0104875 0.999945 123.595 338.777)" stroke="#4338CA" stroke-width="2.83898" stroke-linecap="round"/>
<line opacity="0.4" x1="1.41949" y1="-1.41949" x2="114.979" y2="-1.41949" transform="matrix(0.999953 0.00973941 0.0104875 0.999945 123.715 350.132)" stroke="#4338CA" stroke-width="2.83898" stroke-linecap="round"/>
<line opacity="0.4" x1="1.41949" y1="-1.41949" x2="114.979" y2="-1.41949" transform="matrix(0.999953 0.00973941 0.0104875 0.999945 123.834 361.488)" stroke="#4338CA" stroke-width="2.83898" stroke-linecap="round"/>
<line opacity="0.4" x1="1.41949" y1="-1.41949" x2="57.0635" y2="-1.41949" transform="matrix(0.999953 0.00973941 0.0104875 0.999945 123.953 372.843)" stroke="#4338CA" stroke-width="2.83898" stroke-linecap="round"/>
<rect x="1.14745" y="1.14659" width="154.641" height="195.414" rx="1.13559" transform="matrix(0.999953 0.00973941 0.0104875 0.999945 102.649 241.507)" stroke="#4338CA" stroke-opacity="0.4" stroke-width="2.27118"/>
<g opacity="0.8">
<rect width="62.8253" height="62.8253" rx="5.23544" transform="matrix(-1 8.74228e-08 8.74228e-08 1 62.8254 20)" fill="white"/>
<path d="M18.0662 43.7433C17.8463 43.67 17.7363 43.5112 17.7363 43.2669C17.7363 43.1203 17.7485 43.0104 17.773 42.9371C18.5548 41.1291 19.752 39.7487 21.3645 38.7958C22.977 37.843 24.8949 37.3665 27.1182 37.3665C28.8773 37.3665 30.441 37.6597 31.8092 38.2461C33.1774 38.808 34.228 39.5776 34.9609 40.5549C35.7183 41.5322 36.097 42.6072 36.097 43.78C36.097 44.6839 35.926 45.5024 35.5839 46.2354C35.2419 46.9439 34.8266 47.5547 34.3379 48.0678C33.8493 48.5809 33.2018 49.1917 32.3956 49.9002C31.2228 50.9263 30.3433 51.8425 29.7569 52.6488C29.1705 53.4551 28.8773 54.4446 28.8773 55.6173C28.8773 55.8127 28.8041 55.9838 28.6575 56.1304C28.5109 56.2525 28.3398 56.3136 28.1444 56.3136L25.1392 56.3136C24.6262 56.3136 24.3696 56.0326 24.3696 55.4707C24.3696 54.3468 24.5407 53.3329 24.8827 52.4289C25.2492 51.5249 25.6767 50.7675 26.1654 50.1567C26.6785 49.5215 27.3259 48.813 28.1077 48.0311C28.9629 47.1516 29.5737 46.4431 29.9401 45.9055C30.3311 45.3436 30.5265 44.7328 30.5265 44.0731C30.5265 43.218 30.1967 42.5339 29.537 42.0209C28.9018 41.4833 28.0833 41.2146 27.0816 41.2146C26.1043 41.2146 25.1881 41.4956 24.333 42.0575C23.4779 42.595 22.8671 43.328 22.5006 44.2564C22.4029 44.4518 22.3051 44.574 22.2074 44.6229C22.1097 44.6473 21.9509 44.6473 21.731 44.6229L18.0662 43.7433ZM29.647 64.0463C29.647 64.364 29.5614 64.5961 29.3904 64.7427C29.2438 64.8648 28.9995 64.9259 28.6575 64.9259L24.2963 64.9259C24.0032 64.9259 23.7955 64.8648 23.6733 64.7427C23.5756 64.6205 23.5267 64.425 23.5267 64.1563L23.5267 59.6119C23.5267 59.1722 23.7222 58.9523 24.1131 58.9523L29.1339 58.9523C29.4759 58.9523 29.647 59.1477 29.647 59.5386L29.647 64.0463Z" fill="#64748B"/>
<rect width="62.8253" height="62.8253" rx="5.23544" transform="matrix(-1 8.74228e-08 8.74228e-08 1 142.095 20)" fill="white"/>
<path d="M97.3354 43.7433C97.1156 43.67 97.0056 43.5112 97.0056 43.2669C97.0056 43.1203 97.0178 43.0104 97.0423 42.9371C97.8241 41.1291 99.0213 39.7487 100.634 38.7958C102.246 37.843 104.164 37.3665 106.388 37.3665C108.147 37.3665 109.71 37.6597 111.078 38.2461C112.447 38.808 113.497 39.5776 114.23 40.5549C114.988 41.5322 115.366 42.6072 115.366 43.78C115.366 44.6839 115.195 45.5024 114.853 46.2354C114.511 46.9439 114.096 47.5547 113.607 48.0678C113.119 48.5809 112.471 49.1917 111.665 49.9002C110.492 50.9263 109.613 51.8425 109.026 52.6488C108.44 53.4551 108.147 54.4446 108.147 55.6173C108.147 55.8127 108.073 55.9838 107.927 56.1304C107.78 56.2525 107.609 56.3136 107.414 56.3136L104.409 56.3136C103.895 56.3136 103.639 56.0326 103.639 55.4707C103.639 54.3468 103.81 53.3329 104.152 52.4289C104.518 51.5249 104.946 50.7675 105.435 50.1567C105.948 49.5215 106.595 48.813 107.377 48.0311C108.232 47.1516 108.843 46.4431 109.209 45.9055C109.6 45.3436 109.796 44.7328 109.796 44.0731C109.796 43.218 109.466 42.5339 108.806 42.0209C108.171 41.4833 107.353 41.2146 106.351 41.2146C105.374 41.2146 104.457 41.4956 103.602 42.0575C102.747 42.595 102.136 43.328 101.77 44.2564C101.672 44.4518 101.574 44.574 101.477 44.6229C101.379 44.6473 101.22 44.6473 101 44.6229L97.3354 43.7433ZM108.916 64.0463C108.916 64.364 108.831 64.5961 108.66 64.7427C108.513 64.8648 108.269 64.9259 107.927 64.9259L103.566 64.9259C103.272 64.9259 103.065 64.8648 102.943 64.7427C102.845 64.6205 102.796 64.425 102.796 64.1563L102.796 59.6119C102.796 59.1722 102.991 58.9523 103.382 58.9523L108.403 58.9523C108.745 58.9523 108.916 59.1477 108.916 59.5386L108.916 64.0463Z" fill="#64748B"/>
<rect width="62.8253" height="62.8253" rx="5.23544" transform="matrix(-1 8.74228e-08 8.74228e-08 1 221.364 20)" fill="white"/>
<path d="M176.603 43.7433C176.383 43.67 176.273 43.5112 176.273 43.2669C176.273 43.1203 176.286 43.0104 176.31 42.9371C177.092 41.1291 178.289 39.7487 179.902 38.7958C181.514 37.843 183.432 37.3665 185.655 37.3665C187.414 37.3665 188.978 37.6597 190.346 38.2461C191.714 38.808 192.765 39.5776 193.498 40.5549C194.255 41.5322 194.634 42.6072 194.634 43.78C194.634 44.6839 194.463 45.5024 194.121 46.2354C193.779 46.9439 193.364 47.5547 192.875 48.0678C192.386 48.5809 191.739 49.1917 190.933 49.9002C189.76 50.9263 188.88 51.8425 188.294 52.6488C187.708 53.4551 187.414 54.4446 187.414 55.6173C187.414 55.8127 187.341 55.9838 187.195 56.1304C187.048 56.2525 186.877 56.3136 186.681 56.3136L183.676 56.3136C183.163 56.3136 182.907 56.0326 182.907 55.4707C182.907 54.3468 183.078 53.3329 183.42 52.4289C183.786 51.5249 184.214 50.7675 184.702 50.1567C185.216 49.5215 185.863 48.813 186.645 48.0311C187.5 47.1516 188.111 46.4431 188.477 45.9055C188.868 45.3436 189.064 44.7328 189.064 44.0731C189.064 43.218 188.734 42.5339 188.074 42.0209C187.439 41.4833 186.62 41.2146 185.619 41.2146C184.641 41.2146 183.725 41.4956 182.87 42.0575C182.015 42.595 181.404 43.328 181.038 44.2564C180.94 44.4518 180.842 44.574 180.745 44.6229C180.647 44.6473 180.488 44.6473 180.268 44.6229L176.603 43.7433ZM188.184 64.0463C188.184 64.364 188.099 64.5961 187.928 64.7427C187.781 64.8648 187.537 64.9259 187.195 64.9259L182.833 64.9259C182.54 64.9259 182.333 64.8648 182.21 64.7427C182.113 64.6205 182.064 64.425 182.064 64.1563L182.064 59.6119C182.064 59.1722 182.259 58.9523 182.65 58.9523L187.671 58.9523C188.013 58.9523 188.184 59.1477 188.184 59.5386L188.184 64.0463Z" fill="#64748B"/>
<rect width="62.8253" height="62.8253" rx="5.23544" transform="matrix(-1 8.74228e-08 8.74228e-08 1 300.634 20)" fill="white"/>
<path d="M255.873 43.7433C255.653 43.67 255.543 43.5112 255.543 43.2669C255.543 43.1203 255.556 43.0104 255.58 42.9371C256.362 41.1291 257.559 39.7487 259.172 38.7958C260.784 37.843 262.702 37.3665 264.925 37.3665C266.684 37.3665 268.248 37.6597 269.616 38.2461C270.985 38.808 272.035 39.5776 272.768 40.5549C273.525 41.5322 273.904 42.6072 273.904 43.78C273.904 44.6839 273.733 45.5024 273.391 46.2354C273.049 46.9439 272.634 47.5547 272.145 48.0678C271.656 48.5809 271.009 49.1917 270.203 49.9002C269.03 50.9263 268.15 51.8425 267.564 52.6488C266.978 53.4551 266.684 54.4446 266.684 55.6173C266.684 55.8127 266.611 55.9838 266.465 56.1304C266.318 56.2525 266.147 56.3136 265.952 56.3136L262.946 56.3136C262.433 56.3136 262.177 56.0326 262.177 55.4707C262.177 54.3468 262.348 53.3329 262.69 52.4289C263.056 51.5249 263.484 50.7675 263.973 50.1567C264.486 49.5215 265.133 48.813 265.915 48.0311C266.77 47.1516 267.381 46.4431 267.747 45.9055C268.138 45.3436 268.334 44.7328 268.334 44.0731C268.334 43.218 268.004 42.5339 267.344 42.0209C266.709 41.4833 265.89 41.2146 264.889 41.2146C263.911 41.2146 262.995 41.4956 262.14 42.0575C261.285 42.595 260.674 43.328 260.308 44.2564C260.21 44.4518 260.112 44.574 260.015 44.6229C259.917 44.6473 259.758 44.6473 259.538 44.6229L255.873 43.7433ZM267.454 64.0463C267.454 64.364 267.369 64.5961 267.198 64.7427C267.051 64.8648 266.807 64.9259 266.465 64.9259L262.103 64.9259C261.81 64.9259 261.603 64.8648 261.48 64.7427C261.383 64.6205 261.334 64.425 261.334 64.1563L261.334 59.6119C261.334 59.1722 261.529 58.9523 261.92 58.9523L266.941 58.9523C267.283 58.9523 267.454 59.1477 267.454 59.5386L267.454 64.0463Z" fill="#64748B"/>
<rect width="62.8253" height="62.8253" rx="5.23544" transform="matrix(-1 8.74228e-08 8.74228e-08 1 379.903 20)" fill="white"/>
<path d="M335.143 43.7433C334.923 43.67 334.813 43.5112 334.813 43.2669C334.813 43.1203 334.825 43.0104 334.85 42.9371C335.631 41.1291 336.829 39.7487 338.441 38.7958C340.054 37.843 341.972 37.3665 344.195 37.3665C345.954 37.3665 347.518 37.6597 348.886 38.2461C350.254 38.808 351.305 39.5776 352.038 40.5549C352.795 41.5322 353.174 42.6072 353.174 43.78C353.174 44.6839 353.003 45.5024 352.661 46.2354C352.319 46.9439 351.903 47.5547 351.415 48.0678C350.926 48.5809 350.278 49.1917 349.472 49.9002C348.299 50.9263 347.42 51.8425 346.834 52.6488C346.247 53.4551 345.954 54.4446 345.954 55.6173C345.954 55.8127 345.881 55.9838 345.734 56.1304C345.588 56.2525 345.417 56.3136 345.221 56.3136L342.216 56.3136C341.703 56.3136 341.446 56.0326 341.446 55.4707C341.446 54.3468 341.617 53.3329 341.959 52.4289C342.326 51.5249 342.753 50.7675 343.242 50.1567C343.755 49.5215 344.403 48.813 345.184 48.0311C346.04 47.1516 346.65 46.4431 347.017 45.9055C347.408 45.3436 347.603 44.7328 347.603 44.0731C347.603 43.218 347.273 42.5339 346.614 42.0209C345.978 41.4833 345.16 41.2146 344.158 41.2146C343.181 41.2146 342.265 41.4956 341.41 42.0575C340.555 42.595 339.944 43.328 339.577 44.2564C339.48 44.4518 339.382 44.574 339.284 44.6229C339.186 44.6473 339.028 44.6473 338.808 44.6229L335.143 43.7433ZM346.724 64.0463C346.724 64.364 346.638 64.5961 346.467 64.7427C346.32 64.8648 346.076 64.9259 345.734 64.9259L341.373 64.9259C341.08 64.9259 340.872 64.8648 340.75 64.7427C340.652 64.6205 340.603 64.425 340.603 64.1563L340.603 59.6119C340.603 59.1722 340.799 58.9523 341.19 58.9523L346.211 58.9523C346.553 58.9523 346.724 59.1477 346.724 59.5386L346.724 64.0463Z" fill="#64748B"/>
<rect width="62.8253" height="62.8253" rx="5.23544" transform="matrix(-1 8.74228e-08 8.74228e-08 1 62.8254 99.2698)" fill="white"/>
<path d="M18.0662 123.013C17.8463 122.94 17.7363 122.781 17.7363 122.537C17.7363 122.39 17.7485 122.28 17.773 122.207C18.5548 120.399 19.752 119.019 21.3645 118.066C22.977 117.113 24.8949 116.637 27.1182 116.637C28.8773 116.637 30.441 116.93 31.8092 117.516C33.1774 118.078 34.228 118.848 34.9609 119.825C35.7183 120.802 36.097 121.877 36.097 123.05C36.097 123.954 35.926 124.772 35.5839 125.505C35.2419 126.214 34.8266 126.825 34.3379 127.338C33.8493 127.851 33.2018 128.462 32.3956 129.17C31.2228 130.196 30.3433 131.113 29.7569 131.919C29.1705 132.725 28.8773 133.715 28.8773 134.887C28.8773 135.083 28.8041 135.254 28.6575 135.4C28.5109 135.523 28.3398 135.584 28.1444 135.584L25.1392 135.584C24.6262 135.584 24.3696 135.303 24.3696 134.741C24.3696 133.617 24.5407 132.603 24.8827 131.699C25.2492 130.795 25.6767 130.038 26.1654 129.427C26.6785 128.792 27.3259 128.083 28.1077 127.301C28.9629 126.422 29.5737 125.713 29.9401 125.176C30.3311 124.614 30.5265 124.003 30.5265 123.343C30.5265 122.488 30.1967 121.804 29.537 121.291C28.9018 120.753 28.0833 120.485 27.0816 120.485C26.1043 120.485 25.1881 120.766 24.333 121.328C23.4779 121.865 22.8671 122.598 22.5006 123.526C22.4029 123.722 22.3051 123.844 22.2074 123.893C22.1097 123.917 21.9509 123.917 21.731 123.893L18.0662 123.013ZM29.647 143.316C29.647 143.634 29.5614 143.866 29.3904 144.013C29.2438 144.135 28.9995 144.196 28.6575 144.196L24.2963 144.196C24.0032 144.196 23.7955 144.135 23.6733 144.013C23.5756 143.891 23.5267 143.695 23.5267 143.426L23.5267 138.882C23.5267 138.442 23.7222 138.222 24.1131 138.222L29.1339 138.222C29.4759 138.222 29.647 138.418 29.647 138.809L29.647 143.316Z" fill="#64748B"/>
<rect width="62.8253" height="62.8253" rx="5.23544" transform="matrix(-1 8.74228e-08 8.74228e-08 1 142.095 99.2695)" fill="white"/>
<path d="M97.3354 123.013C97.1156 122.94 97.0056 122.781 97.0056 122.537C97.0056 122.39 97.0178 122.28 97.0423 122.207C97.8241 120.399 99.0213 119.018 100.634 118.066C102.246 117.113 104.164 116.636 106.388 116.636C108.147 116.636 109.71 116.93 111.078 117.516C112.447 118.078 113.497 118.847 114.23 119.825C114.988 120.802 115.366 121.877 115.366 123.05C115.366 123.954 115.195 124.772 114.853 125.505C114.511 126.214 114.096 126.824 113.607 127.338C113.119 127.851 112.471 128.461 111.665 129.17C110.492 130.196 109.613 131.112 109.026 131.919C108.44 132.725 108.147 133.714 108.147 134.887C108.147 135.083 108.073 135.254 107.927 135.4C107.78 135.522 107.609 135.583 107.414 135.583L104.409 135.583C103.895 135.583 103.639 135.302 103.639 134.74C103.639 133.617 103.81 132.603 104.152 131.699C104.518 130.795 104.946 130.037 105.435 129.427C105.948 128.791 106.595 128.083 107.377 127.301C108.232 126.421 108.843 125.713 109.209 125.175C109.6 124.613 109.796 124.003 109.796 123.343C109.796 122.488 109.466 121.804 108.806 121.291C108.171 120.753 107.353 120.484 106.351 120.484C105.374 120.484 104.457 120.765 103.602 121.327C102.747 121.865 102.136 122.598 101.77 123.526C101.672 123.722 101.574 123.844 101.477 123.893C101.379 123.917 101.22 123.917 101 123.893L97.3354 123.013ZM108.916 143.316C108.916 143.634 108.831 143.866 108.66 144.012C108.513 144.135 108.269 144.196 107.927 144.196L103.566 144.196C103.272 144.196 103.065 144.135 102.943 144.012C102.845 143.89 102.796 143.695 102.796 143.426L102.796 138.882C102.796 138.442 102.991 138.222 103.382 138.222L108.403 138.222C108.745 138.222 108.916 138.417 108.916 138.808L108.916 143.316Z" fill="#64748B"/>
<rect width="62.8253" height="62.8253" rx="5.23544" transform="matrix(-1 8.74228e-08 8.74228e-08 1 221.364 99.2698)" fill="white"/>
<path d="M176.603 123.013C176.383 122.94 176.273 122.781 176.273 122.537C176.273 122.39 176.286 122.28 176.31 122.207C177.092 120.399 178.289 119.019 179.902 118.066C181.514 117.113 183.432 116.637 185.655 116.637C187.414 116.637 188.978 116.93 190.346 117.516C191.714 118.078 192.765 118.848 193.498 119.825C194.255 120.802 194.634 121.877 194.634 123.05C194.634 123.954 194.463 124.772 194.121 125.505C193.779 126.214 193.364 126.825 192.875 127.338C192.386 127.851 191.739 128.462 190.933 129.17C189.76 130.196 188.88 131.113 188.294 131.919C187.708 132.725 187.414 133.715 187.414 134.887C187.414 135.083 187.341 135.254 187.195 135.4C187.048 135.523 186.877 135.584 186.681 135.584L183.676 135.584C183.163 135.584 182.907 135.303 182.907 134.741C182.907 133.617 183.078 132.603 183.42 131.699C183.786 130.795 184.214 130.038 184.702 129.427C185.216 128.792 185.863 128.083 186.645 127.301C187.5 126.422 188.111 125.713 188.477 125.176C188.868 124.614 189.064 124.003 189.064 123.343C189.064 122.488 188.734 121.804 188.074 121.291C187.439 120.753 186.62 120.485 185.619 120.485C184.641 120.485 183.725 120.766 182.87 121.328C182.015 121.865 181.404 122.598 181.038 123.526C180.94 123.722 180.842 123.844 180.745 123.893C180.647 123.917 180.488 123.917 180.268 123.893L176.603 123.013ZM188.184 143.316C188.184 143.634 188.099 143.866 187.928 144.013C187.781 144.135 187.537 144.196 187.195 144.196L182.833 144.196C182.54 144.196 182.333 144.135 182.21 144.013C182.113 143.891 182.064 143.695 182.064 143.426L182.064 138.882C182.064 138.442 182.259 138.222 182.65 138.222L187.671 138.222C188.013 138.222 188.184 138.418 188.184 138.809L188.184 143.316Z" fill="#64748B"/>
<rect width="62.8253" height="62.8253" rx="5.23544" transform="matrix(-1 8.74228e-08 8.74228e-08 1 300.634 99.2698)" fill="white"/>
<path d="M255.873 123.013C255.653 122.94 255.543 122.781 255.543 122.537C255.543 122.39 255.556 122.28 255.58 122.207C256.362 120.399 257.559 119.019 259.172 118.066C260.784 117.113 262.702 116.637 264.925 116.637C266.684 116.637 268.248 116.93 269.616 117.516C270.985 118.078 272.035 118.848 272.768 119.825C273.525 120.802 273.904 121.877 273.904 123.05C273.904 123.954 273.733 124.772 273.391 125.505C273.049 126.214 272.634 126.825 272.145 127.338C271.656 127.851 271.009 128.462 270.203 129.17C269.03 130.196 268.15 131.113 267.564 131.919C266.978 132.725 266.684 133.715 266.684 134.887C266.684 135.083 266.611 135.254 266.465 135.4C266.318 135.523 266.147 135.584 265.952 135.584L262.946 135.584C262.433 135.584 262.177 135.303 262.177 134.741C262.177 133.617 262.348 132.603 262.69 131.699C263.056 130.795 263.484 130.038 263.973 129.427C264.486 128.792 265.133 128.083 265.915 127.301C266.77 126.422 267.381 125.713 267.747 125.176C268.138 124.614 268.334 124.003 268.334 123.343C268.334 122.488 268.004 121.804 267.344 121.291C266.709 120.753 265.89 120.485 264.889 120.485C263.911 120.485 262.995 120.766 262.14 121.328C261.285 121.865 260.674 122.598 260.308 123.526C260.21 123.722 260.112 123.844 260.015 123.893C259.917 123.917 259.758 123.917 259.538 123.893L255.873 123.013ZM267.454 143.316C267.454 143.634 267.369 143.866 267.198 144.013C267.051 144.135 266.807 144.196 266.465 144.196L262.103 144.196C261.81 144.196 261.603 144.135 261.48 144.013C261.383 143.891 261.334 143.695 261.334 143.426L261.334 138.882C261.334 138.442 261.529 138.222 261.92 138.222L266.941 138.222C267.283 138.222 267.454 138.418 267.454 138.809L267.454 143.316Z" fill="#64748B"/>
<rect width="62.8253" height="62.8253" rx="5.23544" transform="matrix(-1 8.74228e-08 8.74228e-08 1 379.903 99.2695)" fill="white"/>
<path d="M335.143 123.013C334.923 122.94 334.813 122.781 334.813 122.537C334.813 122.39 334.825 122.28 334.85 122.207C335.631 120.399 336.829 119.018 338.441 118.066C340.054 117.113 341.972 116.636 344.195 116.636C345.954 116.636 347.518 116.93 348.886 117.516C350.254 118.078 351.305 118.847 352.038 119.825C352.795 120.802 353.174 121.877 353.174 123.05C353.174 123.954 353.003 124.772 352.661 125.505C352.319 126.214 351.903 126.824 351.415 127.338C350.926 127.851 350.278 128.461 349.472 129.17C348.299 130.196 347.42 131.112 346.834 131.919C346.247 132.725 345.954 133.714 345.954 134.887C345.954 135.083 345.881 135.254 345.734 135.4C345.588 135.522 345.417 135.583 345.221 135.583L342.216 135.583C341.703 135.583 341.446 135.302 341.446 134.74C341.446 133.617 341.617 132.603 341.959 131.699C342.326 130.795 342.753 130.037 343.242 129.427C343.755 128.791 344.403 128.083 345.184 127.301C346.04 126.421 346.65 125.713 347.017 125.175C347.408 124.613 347.603 124.003 347.603 123.343C347.603 122.488 347.273 121.804 346.614 121.291C345.978 120.753 345.16 120.484 344.158 120.484C343.181 120.484 342.265 120.765 341.41 121.327C340.555 121.865 339.944 122.598 339.577 123.526C339.48 123.722 339.382 123.844 339.284 123.893C339.186 123.917 339.028 123.917 338.808 123.893L335.143 123.013ZM346.724 143.316C346.724 143.634 346.638 143.866 346.467 144.012C346.32 144.135 346.076 144.196 345.734 144.196L341.373 144.196C341.08 144.196 340.872 144.135 340.75 144.012C340.652 143.89 340.603 143.695 340.603 143.426L340.603 138.882C340.603 138.442 340.799 138.222 341.19 138.222L346.211 138.222C346.553 138.222 346.724 138.417 346.724 138.808L346.724 143.316Z" fill="#64748B"/>
</g>
<path d="M69.9517 196.095H68.9517V197.095H69.9517V196.095ZM309.952 196.095V197.095H310.952V196.095H309.952ZM189.245 233.802C189.635 234.192 190.268 234.192 190.659 233.802L197.023 227.438C197.413 227.047 197.413 226.414 197.023 226.024C196.632 225.633 195.999 225.633 195.609 226.024L189.952 231.681L184.295 226.024C183.904 225.633 183.271 225.633 182.881 226.024C182.49 226.414 182.49 227.047 182.881 227.438L189.245 233.802ZM68.9517 179.095V181.22H70.9517V179.095H68.9517ZM68.9517 185.47V189.72H70.9517V185.47H68.9517ZM68.9517 193.97V196.095H70.9517V193.97H68.9517ZM69.9517 197.095H71.9517V195.095H69.9517V197.095ZM75.9517 197.095H79.9517V195.095H75.9517V197.095ZM83.9517 197.095H87.9517V195.095H83.9517V197.095ZM91.9517 197.095H95.9517V195.095H91.9517V197.095ZM99.9517 197.095H103.952V195.095H99.9517V197.095ZM107.952 197.095H111.952V195.095H107.952V197.095ZM115.952 197.095H119.952V195.095H115.952V197.095ZM123.952 197.095H127.952V195.095H123.952V197.095ZM131.952 197.095H135.952V195.095H131.952V197.095ZM139.952 197.095H143.952V195.095H139.952V197.095ZM147.952 197.095H151.952V195.095H147.952V197.095ZM155.952 197.095H159.952V195.095H155.952V197.095ZM163.952 197.095H167.952V195.095H163.952V197.095ZM171.952 197.095H175.952V195.095H171.952V197.095ZM179.952 197.095H183.952V195.095H179.952V197.095ZM187.952 197.095H189.952V195.095H187.952V197.095ZM189.952 197.095H191.952V195.095H189.952V197.095ZM195.952 197.095H199.952V195.095H195.952V197.095ZM203.952 197.095H207.952V195.095H203.952V197.095ZM211.952 197.095H215.952V195.095H211.952V197.095ZM219.952 197.095H223.952V195.095H219.952V197.095ZM227.952 197.095H231.952V195.095H227.952V197.095ZM235.952 197.095H239.952V195.095H235.952V197.095ZM243.952 197.095H247.952V195.095H243.952V197.095ZM251.952 197.095H255.952V195.095H251.952V197.095ZM259.952 197.095H263.952V195.095H259.952V197.095ZM267.952 197.095H271.952V195.095H267.952V197.095ZM275.952 197.095H279.952V195.095H275.952V197.095ZM283.952 197.095H287.952V195.095H283.952V197.095ZM291.952 197.095H295.952V195.095H291.952V197.095ZM299.952 197.095H303.952V195.095H299.952V197.095ZM307.952 197.095H309.952V195.095H307.952V197.095ZM310.952 196.095V193.97H308.952V196.095H310.952ZM310.952 189.72V185.47H308.952V189.72H310.952ZM310.952 181.22V179.095H308.952V181.22H310.952ZM188.952 196.095V197.945H190.952V196.095H188.952ZM188.952 201.645V205.345H190.952V201.645H188.952ZM188.952 209.045V212.745H190.952V209.045H188.952ZM188.952 216.445V220.145H190.952V216.445H188.952ZM188.952 223.845V227.545H190.952V223.845H188.952ZM188.952 231.245V233.095H190.952V231.245H188.952Z" fill="#94A3B8"/>
</g>
<defs>
<clipPath id="clip0_262_4564">
<rect width="380" height="390" fill="white"/>
</clipPath>
</defs>
</svg>
